<?xml version="1.0" standalone="no"?>
<!DOCTYPE svg PUBLIC "-//W3C//DTD SVG 20010904//EN"
 "http://www.w3.org/TR/2001/REC-SVG-20010904/DTD/svg10.dtd">
<svg version="1.0" xmlns="http://www.w3.org/2000/svg"
 width="1500.000000pt" height="1500.000000pt" viewBox="0 0 500.000000 500.000000"
 preserveAspectRatio="xMidYMid meet">
<metadata>
Created by potrace 1.16, written by Peter Selinger 2001-2019
</metadata>
<g transform="translate(0.000000,500.000000) scale(0.100000,-0.100000)"
fill="#6365F1" stroke="none">
<path d="M1729 3629 c-21 -21 -20 -62 5 -102 9 -15 6 -22 -19 -40 -84 -61 -92
-74 -130 -194 -21 -64 -39 -139 -40 -167 -1 -28 -7 -70 -13 -93 -15 -50 -16
-51 -342 -181 -124 -50 -256 -105 -295 -122 -38 -18 -137 -58 -220 -90 -82
-32 -231 -91 -330 -133 -99 -41 -196 -78 -215 -82 -19 -3 -44 -9 -54 -12 -18
-5 -18 -6 -2 -15 21 -12 183 -1 192 13 3 5 0 9 -5 9 -6 0 -11 5 -11 10 0 6 5
10 11 10 5 0 66 25 135 55 68 30 182 78 252 106 70 28 226 93 347 144 409 172
520 217 563 227 23 5 42 13 42 18 0 6 70 40 84 40 2 0 7 -63 11 -140 5 -104
10 -142 21 -148 17 -9 50 -152 41 -176 -6 -14 -31 -16 -202 -16 l-196 0 3 -22
c3 -22 14 -27 88 -42 20 -4 25 -12 26 -36 1 -17 4 -33 6 -36 7 -6 68 -14 170
-20 116 -8 119 -29 5 -29 -84 0 -167 -17 -167 -33 0 -4 52 -7 115 -8 111 0
115 -1 140 -28 20 -21 24 -35 21 -67 -2 -22 -6 -42 -10 -46 -3 -3 -6 -19 -6
-34 0 -18 -6 -28 -20 -32 -12 -3 -18 -11 -15 -19 3 -7 6 -73 8 -146 l2 -132
-65 2 -65 1 55 6 55 6 -45 9 c-36 7 -41 10 -25 17 14 5 6 8 -29 8 -36 1 -47
-2 -43 -12 3 -8 1 -20 -3 -27 -5 -8 -3 -19 6 -27 8 -8 15 -24 15 -36 1 -12 3
-31 5 -42 2 -11 6 -37 8 -58 3 -21 12 -47 20 -56 9 -10 13 -21 9 -24 -3 -4 0
-7 7 -7 7 0 10 -3 7 -7 -4 -3 -2 -12 4 -20 9 -10 6 -13 -12 -13 l-24 -1 22
-12 c12 -7 22 -16 22 -22 0 -5 17 -13 38 -16 21 -3 32 -7 25 -8 -18 -1 -43
-27 -35 -35 4 -3 1 -6 -5 -6 -7 0 -12 -4 -12 -10 0 -5 28 -11 63 -12 l62 -1
-60 -7 -60 -7 60 -3 c40 -2 50 -5 30 -8 -26 -4 -28 -5 -10 -12 15 -7 9 -9 -24
-9 -54 -1 -46 -12 17 -26 45 -10 47 -12 48 -45 1 -19 2 -41 3 -47 1 -8 17 -13
45 -13 53 0 100 16 91 30 -4 6 -1 17 5 25 10 12 9 15 -6 16 -11 1 -6 5 11 9
l30 8 -27 1 c-21 1 -28 6 -28 21 0 16 7 20 35 20 19 0 35 5 35 10 0 6 16 10
36 10 27 0 35 4 31 14 -4 9 1 17 11 19 9 3 -7 5 -37 6 l-54 1 44 23 c24 13 62
30 84 37 45 14 67 30 45 31 -22 1 42 28 68 29 31 0 28 16 -5 28 -27 10 -27 10
12 12 l40 1 -23 19 -22 19 22 4 c13 3 -26 3 -87 0 -60 -3 -112 -7 -114 -9 -2
-2 8 -4 23 -4 18 0 26 -4 23 -12 -2 -7 -14 -12 -27 -10 -14 2 -20 0 -16 -7 5
-7 -8 -11 -38 -11 -42 0 -46 2 -46 24 0 13 -3 32 -6 41 -5 11 0 18 15 22 17 4
19 8 9 20 -14 17 -21 150 -7 158 5 4 6 17 3 31 -4 15 -2 24 5 24 8 0 10 18 8
55 -4 47 -1 58 15 70 20 13 20 13 -3 25 -20 12 -21 14 -6 25 12 9 17 31 20 89
3 81 11 96 53 96 11 0 29 9 39 20 13 14 31 20 59 20 68 0 85 -8 88 -44 l3 -31
65 2 c82 2 132 11 125 23 -3 5 -1 11 5 15 6 4 7 11 4 17 -5 8 1 9 17 5 13 -4
49 -7 80 -7 53 0 56 -1 78 -37 l22 -38 -6 33 c-4 19 -3 32 4 32 5 0 12 -12 14
-27 4 -25 4 -24 6 6 l1 34 143 -7 c345 -15 382 -18 389 -31 6 -9 42 -13 130
-14 68 0 140 -1 161 -1 20 0 37 -4 37 -9 0 -5 37 -12 83 -16 56 -5 76 -10 62
-16 -17 -7 -16 -8 8 -8 17 -1 27 -6 27 -16 0 -9 10 -19 22 -24 14 -5 17 -10
10 -15 -25 -15 -10 -26 36 -27 26 0 41 -3 35 -6 -19 -7 -16 -19 10 -30 15 -7
31 -6 52 3 l30 12 -25 10 -25 9 22 7 c36 12 205 23 238 16 24 -5 11 -10 -65
-22 l-95 -16 150 4 c83 2 142 1 133 -2 -45 -14 -5 -36 50 -29 20 2 62 7 92 9
47 5 52 4 30 -6 -14 -7 -52 -18 -85 -25 -55 -11 -46 -12 100 -7 88 3 171 8
184 11 15 4 22 2 18 -4 -4 -6 -32 -13 -62 -15 -31 -3 -61 -10 -68 -17 -10 -11
15 -12 128 -7 88 4 133 2 120 -3 -11 -5 -33 -10 -50 -11 -27 0 -28 -2 -11 -12
21 -12 121 -5 139 10 7 6 32 16 57 23 l45 14 -55 3 c-75 4 -92 11 -60 25 l25
11 -32 4 c-18 2 -33 7 -33 13 0 5 -4 9 -10 9 -12 0 -70 59 -70 71 0 5 -6 9
-14 9 -7 0 -42 28 -77 61 -72 69 -146 109 -201 109 -20 0 -40 5 -43 10 -3 6
-19 10 -35 10 -16 0 -40 4 -54 9 -13 6 -84 22 -158 37 -130 26 -166 39 -137
48 8 2 104 25 214 50 336 78 310 66 465 212 107 100 150 133 206 159 70 33 92
50 80 62 -3 4 -57 -6 -120 -20 -62 -15 -128 -27 -145 -27 -18 0 -62 -6 -99
-14 -37 -8 -112 -22 -167 -31 -55 -9 -122 -22 -150 -30 -27 -8 -84 -19 -125
-25 -41 -5 -108 -16 -148 -24 l-73 -14 -28 39 c-16 21 -34 52 -41 69 -21 52
-38 36 -60 -59 -16 -67 -32 -75 -195 -91 -66 -6 -146 -15 -178 -20 -58 -9 -85
-5 -100 14 -6 7 -7 4 -3 -6 4 -13 -1 -19 -17 -23 -32 -7 -394 -43 -518 -51
-103 -7 -106 -6 -112 15 -7 28 -25 27 -39 -4 -8 -19 -19 -25 -42 -25 -17 0
-55 -3 -83 -6 -50 -6 -53 -5 -53 15 0 25 -48 50 -111 58 -49 7 -91 -20 -87
-56 3 -24 0 -26 -47 -33 -72 -10 -154 1 -176 23 -13 13 -19 33 -19 67 0 27 -9
84 -20 127 -11 43 -20 95 -20 115 0 20 -7 57 -16 82 -8 25 -14 65 -12 88 l3
41 95 40 c72 30 99 38 112 30 13 -8 24 -3 53 25 l37 34 -30 -2 c-41 -3 -73 20
-182 132 -74 76 -103 99 -130 104 -34 6 -36 8 -37 49 -1 48 -8 91 -18 106 -11
19 -74 12 -96 -10z m244 -342 c23 -19 57 -39 75 -47 18 -7 35 -16 37 -21 5 -7
-142 -69 -163 -69 -11 0 -24 132 -16 154 9 23 21 20 67 -17z m-24 -656 c7 -34
11 -64 10 -66 -2 -1 -37 -4 -78 -6 -84 -4 -77 -12 -88 100 -8 80 1 87 81 57
l61 -23 14 -62z m15 -331 c5 -5 5 -29 0 -57 l-9 -48 -52 -8 c-30 -5 -54 -14
-57 -23 -4 -12 -1 -14 14 -9 11 3 28 2 37 -4 16 -9 16 -10 -3 -11 -12 0 -35
-3 -51 -6 -30 -6 -30 -5 -36 43 -3 26 -1 52 4 58 5 5 9 26 9 46 l0 37 68 -5
c37 -3 71 -9 76 -13z"/>
</g>
</svg>
