<?xml version="1.0" standalone="no"?>
<!DOCTYPE svg PUBLIC "-//W3C//DTD SVG 20010904//EN"
 "http://www.w3.org/TR/2001/REC-SVG-20010904/DTD/svg10.dtd">
<svg version="1.0" xmlns="http://www.w3.org/2000/svg"
 width="500.000000pt" height="500.000000pt" viewBox="0 0 500.000000 500.000000"
 preserveAspectRatio="xMidYMid meet">
<metadata>
Created by potrace 1.16, written by Peter Selinger 2001-2019
</metadata>
<g transform="translate(0.000000,500.000000) scale(0.100000,-0.100000)"
fill="#000000" stroke="none">
<path d="M813 3918 c-27 -24 -66 -57 -86 -73 -34 -28 -38 -36 -48 -110 -28
-202 -26 -323 6 -385 13 -25 26 -65 28 -90 3 -25 11 -70 18 -102 l13 -56 -44
-59 c-49 -64 -51 -67 -82 -103 -68 -81 -132 -199 -169 -315 -23 -70 -25 -248
-4 -319 7 -24 13 -91 13 -152 -1 -73 4 -122 14 -149 8 -22 14 -44 12 -50 -2
-5 12 -39 30 -75 51 -101 115 -117 159 -40 19 33 21 60 28 460 4 234 9 432 9
440 3 24 31 111 53 160 26 58 33 33 13 -51 -18 -82 -15 -456 6 -539 16 -67 43
-114 76 -132 22 -12 26 -11 40 11 25 37 26 46 25 229 -1 102 2 172 8 172 5 0
9 -6 9 -14 0 -30 96 -255 170 -396 19 -36 35 -67 35 -70 3 -12 30 -65 35 -70
4 -3 18 -27 31 -55 14 -27 38 -72 53 -100 16 -27 47 -84 69 -125 22 -41 51
-92 64 -112 13 -21 23 -42 23 -47 0 -5 3 -11 8 -13 8 -4 72 -96 72 -104 0 -4
13 -23 28 -43 27 -35 102 -158 102 -167 0 -3 16 -30 35 -60 19 -30 35 -57 35
-60 0 -2 19 -30 41 -61 l42 -56 326 8 c423 11 427 11 486 19 28 3 73 9 100 11
28 3 70 7 95 10 25 4 81 10 125 15 130 13 384 62 481 91 18 6 36 9 40 7 22 -6
159 27 262 62 61 21 112 36 112 33 0 -3 7 0 15 7 9 7 18 10 21 7 3 -3 30 4 59
14 30 10 63 19 73 19 10 0 22 4 28 9 5 5 32 16 59 24 28 9 86 29 130 46 224
83 238 88 395 152 25 10 61 23 81 30 21 7 40 22 47 38 7 14 28 44 48 66 38 43
63 93 69 137 2 15 10 40 19 55 8 16 12 40 9 55 -4 20 1 33 21 52 24 21 27 31
25 81 l-2 56 -73 65 c-120 108 -128 114 -154 121 -14 3 -37 15 -51 25 -22 17
-76 33 -174 55 -59 13 -229 7 -300 -10 -38 -10 -97 -19 -130 -21 -33 -2 -98
-14 -145 -26 -47 -12 -96 -24 -109 -27 -14 -2 -29 -7 -34 -10 -6 -3 -29 -8
-53 -10 -24 -2 -61 -10 -83 -18 -23 -8 -41 -12 -41 -10 0 3 -12 0 -27 -6 -24
-9 -128 -33 -188 -43 -11 -2 -38 -8 -60 -14 -22 -6 -56 -13 -75 -16 -19 -3
-54 -12 -77 -20 -22 -8 -43 -13 -45 -10 -2 2 -39 -7 -81 -20 -42 -13 -77 -22
-77 -20 0 2 -19 -4 -42 -12 -24 -9 -50 -17 -59 -19 -9 -2 -47 -13 -85 -24 -38
-11 -72 -20 -77 -21 -4 0 -24 -7 -44 -15 -20 -8 -38 -13 -40 -11 -3 2 -26 -2
-51 -9 -26 -8 -65 -17 -87 -21 -47 -7 -142 -31 -154 -38 -9 -6 -93 -19 -121
-19 -31 0 -77 12 -125 33 -51 22 -176 67 -207 75 -10 2 -46 16 -80 30 -74 32
-111 47 -118 48 -7 0 -73 36 -135 72 -62 36 -66 43 -83 130 -24 126 -49 228
-81 340 -5 17 -17 57 -26 90 -9 33 -21 74 -26 92 -5 17 -12 48 -14 68 -3 21
-7 40 -10 44 -7 13 -45 203 -41 210 2 3 -2 42 -10 86 -7 44 -13 130 -13 192
-1 86 -4 114 -15 120 -14 8 -21 46 -33 198 -6 80 -12 88 -93 127 -162 79 -184
82 -247 26z m185 -59 c34 -16 62 -32 62 -35 0 -17 -108 -104 -130 -104 -6 0
-39 16 -73 36 -34 20 -67 37 -74 38 -26 4 -22 15 16 45 86 68 92 69 199 20z
m101 -156 c1 -32 6 -82 12 -111 6 -30 9 -55 7 -57 -11 -10 -123 -65 -132 -65
-35 0 -49 158 -18 197 15 20 108 90 123 92 3 1 6 -25 8 -56z m-294 17 c71 -35
88 -60 90 -137 0 -38 5 -81 9 -97 8 -27 8 -29 -17 -22 -14 3 -39 11 -54 18
-15 6 -30 12 -33 13 -3 1 -14 5 -25 9 -11 5 -26 10 -32 12 -24 7 -13 224 10
224 6 0 29 -9 52 -20z m341 -397 c1 -34 26 -178 35 -201 5 -13 9 -33 9 -46 0
-13 6 -46 14 -72 21 -72 38 -145 42 -179 2 -16 7 -37 10 -45 9 -22 55 -198 64
-245 9 -50 29 -130 42 -173 5 -18 12 -58 15 -90 2 -31 14 -81 25 -110 12 -29
22 -61 22 -70 2 -17 17 -74 37 -139 6 -18 12 -40 14 -50 2 -10 13 -43 25 -73
12 -30 24 -64 27 -75 2 -11 8 -29 13 -40 5 -11 20 -54 35 -95 34 -96 88 -227
127 -308 17 -35 28 -65 25 -68 -11 -11 -150 249 -237 441 -12 28 -38 83 -56
123 -19 41 -34 78 -34 83 0 5 -4 17 -9 27 -5 9 -17 37 -26 62 -10 25 -21 54
-25 65 -5 11 -11 29 -14 40 -3 11 -18 56 -34 100 -40 111 -42 116 -57 155 -14
35 -39 111 -40 120 0 5 -21 60 -35 95 -13 30 -35 99 -35 110 -1 6 -8 30 -17
55 -20 56 -39 120 -42 142 -1 10 -5 21 -9 24 -4 4 -7 17 -7 29 0 13 -6 41 -14
63 -14 38 -25 130 -29 226 -2 38 1 42 63 87 75 55 76 55 76 32z m-191 -221
c-1 -70 -33 -245 -55 -297 -4 -11 -15 -62 -25 -113 -14 -79 -15 -109 -5 -205
6 -62 10 -134 8 -162 l-3 -50 -18 39 c-9 21 -17 51 -17 67 0 15 -5 40 -11 56
-6 16 -11 104 -12 213 0 220 10 278 78 425 12 28 26 63 29 79 11 47 31 13 31
-52z m-224 -149 c-21 -43 -44 -100 -51 -128 -6 -27 -14 -59 -18 -70 -3 -11 -6
-177 -7 -370 -2 -354 -11 -475 -40 -504 -18 -19 -40 -2 -60 46 -16 38 -20 66
-35 243 -6 69 -18 149 -27 179 -18 62 -14 234 6 254 6 6 11 18 11 26 0 30 65
149 134 244 39 54 80 111 91 127 36 53 34 31 -4 -47z m288 -103 c7 -25 16 -61
21 -80 4 -19 14 -51 21 -70 7 -19 23 -66 37 -105 13 -38 27 -77 32 -85 4 -8
15 -42 24 -75 9 -33 21 -69 25 -80 5 -11 16 -39 25 -62 9 -24 23 -60 30 -80 8
-21 31 -85 51 -143 20 -58 43 -119 51 -137 8 -17 14 -38 14 -46 0 -9 4 -18 9
-21 11 -7 21 -56 11 -56 -5 0 -13 12 -19 28 -6 15 -29 59 -51 97 -22 39 -67
126 -101 194 -57 116 -87 182 -154 341 -15 36 -31 73 -36 83 -5 9 -16 39 -25
65 -8 26 -20 58 -27 71 -14 29 -14 103 0 134 6 12 17 37 23 55 15 39 23 33 39
-28z m3364 -638 c7 -6 27 -13 46 -17 42 -9 161 -71 243 -126 l63 -43 -50 -22
c-41 -19 -111 -43 -170 -60 -59 -17 -176 -47 -200 -51 -16 -3 -32 -9 -33 -14
-2 -5 -7 -7 -12 -4 -4 3 -25 -1 -46 -8 -36 -13 -40 -12 -79 15 -55 39 -136 52
-265 43 -93 -6 -275 -44 -356 -75 -13 -5 -24 -8 -24 -5 0 2 -25 -5 -55 -15
-30 -10 -55 -16 -55 -13 0 3 -6 1 -12 -4 -7 -5 -24 -10 -37 -11 -13 0 -34 -10
-46 -22 -46 -43 -263 -47 -510 -10 -73 11 -84 13 -150 26 -22 4 -48 7 -57 6
-10 0 -18 3 -18 6 0 4 -10 9 -22 9 -69 6 -85 27 -28 37 14 2 26 5 28 7 3 2 10
4 67 14 28 5 52 9 55 10 3 1 28 5 55 10 28 4 59 10 70 12 79 18 113 25 132 28
26 4 61 13 88 24 27 11 152 48 195 57 41 9 41 9 60 16 8 4 42 11 75 18 33 6
67 13 75 15 29 7 215 47 265 56 28 6 55 11 62 13 7 1 16 5 19 9 4 4 20 7 35 7
15 0 38 4 51 9 30 11 100 23 162 26 26 2 67 10 90 18 22 9 50 17 61 19 38 7
217 -1 228 -10z m-2877 -110 c5 -5 45 -22 89 -37 44 -16 99 -38 122 -50 22
-13 58 -26 80 -30 21 -4 65 -18 98 -32 130 -55 106 -47 166 -56 29 -5 57 -18
78 -37 18 -17 36 -31 42 -31 5 -1 12 -2 17 -3 39 -10 100 -19 113 -17 9 1 34
-7 55 -18 22 -11 71 -25 109 -31 39 -5 88 -13 110 -16 68 -10 70 -21 6 -27
-33 -4 -66 -5 -73 -2 -18 5 -190 18 -263 19 -33 1 -66 5 -73 9 -7 5 -18 5 -25
0 -13 -9 -82 -9 -107 0 -8 3 -71 8 -140 11 -69 3 -137 8 -152 10 -21 3 -127
33 -148 42 -3 1 -14 5 -26 9 -11 3 -28 23 -36 43 -15 35 -29 80 -73 230 -7 23
11 31 31 14z m3207 -291 c-17 -54 -32 -66 -92 -77 -13 -3 -32 -9 -43 -15 -10
-5 -18 -7 -18 -4 0 2 -17 -1 -37 -9 -21 -8 -78 -27 -128 -42 -49 -15 -115 -35
-145 -46 -30 -10 -64 -21 -76 -23 -12 -3 -40 -11 -63 -19 -22 -9 -41 -13 -41
-10 0 2 -16 -3 -36 -11 -20 -8 -45 -15 -55 -15 -11 0 -19 -3 -19 -7 0 -5 -12
-9 -26 -10 -15 0 -36 -5 -48 -11 -25 -11 -173 -53 -201 -56 -11 -2 -30 -6 -42
-10 -26 -8 -52 -14 -178 -37 -68 -12 -113 -19 -160 -23 -22 -2 -69 -9 -105
-15 -36 -5 -112 -13 -170 -16 -58 -3 -112 -8 -120 -10 -24 -7 -218 -18 -300
-17 -41 0 -78 -2 -83 -5 -6 -4 -513 -15 -642 -14 -11 0 -35 -4 -53 -9 -29 -8
-37 -6 -58 15 -13 13 -24 29 -24 35 0 7 -15 44 -34 83 -18 40 -56 127 -84 195
-38 94 -46 122 -34 118 20 -7 108 -25 177 -37 75 -13 118 -18 245 -24 63 -3
142 -7 175 -9 442 -22 611 -25 985 -16 223 5 421 12 440 15 19 3 60 8 90 10
30 3 66 7 80 9 14 3 52 10 85 16 33 6 76 13 95 16 19 4 40 7 45 8 6 1 44 8 85
15 153 26 257 51 325 76 39 15 65 21 59 15 -17 -17 -282 -118 -333 -126 -14
-3 -46 -11 -71 -19 -63 -19 -166 -45 -225 -55 -27 -5 -61 -12 -75 -15 -14 -2
-47 -7 -75 -11 -27 -3 -54 -8 -60 -12 -5 -4 -28 -7 -50 -9 -22 -1 -60 -5 -85
-9 -66 -10 -78 -11 -160 -17 -41 -3 -104 -10 -140 -16 -36 -5 -83 -11 -105
-12 -22 -2 -44 -5 -50 -8 -5 -3 -32 -6 -60 -7 -27 0 -115 -4 -195 -9 -181 -9
-627 -9 -780 1 -63 4 -132 7 -153 7 -20 0 -37 3 -37 7 0 10 -113 12 -128 2
-36 -24 32 -62 118 -67 19 -1 80 -6 135 -10 203 -15 782 -9 1010 11 22 2 74 6
115 9 41 2 107 10 145 16 39 5 86 12 105 15 19 2 64 9 100 16 36 6 79 12 95
13 26 2 84 8 185 20 22 3 55 8 110 19 8 2 22 6 30 9 8 3 22 5 30 5 8 0 42 7
75 16 33 8 69 17 80 19 11 1 25 5 30 8 6 3 33 12 60 18 28 7 66 19 85 26 19 7
53 18 75 25 80 24 394 142 425 159 8 5 16 8 18 6 1 -1 -5 -26 -15 -54z m-105
-163 c-3 -7 -22 -19 -44 -27 -21 -8 -42 -20 -46 -25 -4 -6 -8 -8 -8 -3 0 4
-17 0 -37 -9 -21 -8 -45 -17 -53 -19 -8 -2 -33 -11 -55 -21 -22 -10 -49 -19
-60 -21 -11 -2 -24 -8 -29 -13 -6 -6 -17 -10 -25 -10 -9 0 -29 -7 -44 -15 -29
-15 -254 -94 -286 -100 -37 -7 -128 -36 -204 -66 -44 -17 -91 -32 -106 -34
-14 -3 -33 -6 -41 -8 -8 -2 -37 -7 -65 -12 -27 -4 -54 -10 -60 -14 -5 -3 -19
-6 -30 -7 -11 -1 -33 -4 -50 -8 -16 -3 -68 -13 -115 -20 -47 -8 -107 -19 -133
-25 -27 -6 -52 -9 -57 -6 -5 3 -11 1 -15 -4 -3 -6 -18 -10 -33 -9 -15 0 -36
-2 -47 -5 -11 -3 -49 -8 -85 -12 -36 -4 -76 -9 -90 -12 -14 -2 -47 -5 -75 -8
-27 -2 -70 -7 -95 -10 -100 -14 -315 -25 -564 -28 l-179 -2 -33 65 c-19 36
-34 68 -34 71 0 14 113 21 395 24 284 3 415 9 495 20 19 3 71 8 115 11 44 3
103 7 130 9 28 3 82 7 120 9 57 4 119 10 210 21 6 1 42 5 80 10 75 8 76 9 115
18 14 3 43 9 65 12 69 10 113 19 155 30 3 1 19 5 35 9 94 25 252 72 410 124
99 32 205 66 235 75 30 9 84 25 120 36 77 23 123 26 118 9z"/>
</g>
</svg>
