<?xml version="1.0" standalone="no"?>
<!DOCTYPE svg PUBLIC "-//W3C//DTD SVG 20010904//EN"
 "http://www.w3.org/TR/2001/REC-SVG-20010904/DTD/svg10.dtd">
<svg version="1.0" xmlns="http://www.w3.org/2000/svg"
 width="500.000000pt" height="500.000000pt" viewBox="0 0 500.000000 500.000000"
 preserveAspectRatio="xMidYMid meet">
<metadata>
Created by potrace 1.16, written by Peter Selinger 2001-2019
</metadata>
<g transform="translate(0.000000,500.000000) scale(0.100000,-0.100000)"
fill="#000000" stroke="none">
<path d="M2175 4338 c-55 -6 -102 -14 -105 -19 -3 -5 -3 -30 0 -56 4 -43 8
-48 32 -51 33 -4 35 -9 43 -154 5 -105 5 -107 -17 -110 -21 -3 -23 -7 -20 -53
2 -27 7 -53 10 -57 8 -8 416 27 432 37 9 5 7 27 -6 95 -4 20 2 15 27 -21 56
-79 145 -121 262 -121 71 0 127 21 175 65 l23 22 -10 -27 c-5 -15 -16 -36 -23
-47 -8 -13 -9 -24 -3 -29 10 -10 214 -102 224 -102 4 0 18 20 31 46 l25 45
-23 17 c-21 17 -23 52 -2 52 29 0 54 -95 34 -131 -25 -45 -18 -54 66 -90 61
-26 118 -64 242 -162 90 -71 171 -133 180 -138 9 -5 44 -47 78 -94 36 -50 68
-85 79 -85 9 0 32 16 51 35 29 30 31 36 20 51 -12 14 -12 17 4 26 9 5 33 23
51 40 l34 30 -15 -54 c-9 -29 -29 -95 -45 -147 -15 -51 -26 -99 -22 -105 20
-34 67 -86 78 -86 7 0 77 48 155 106 134 100 142 105 160 89 15 -14 22 -15 42
-5 34 18 58 41 58 57 0 22 -130 188 -146 187 -8 -1 -30 -12 -49 -25 -35 -24
-46 -54 -22 -62 6 -2 10 -6 7 -8 -79 -63 -93 -71 -88 -53 3 10 15 55 27 99 12
44 29 100 37 124 17 49 17 47 -55 139 -23 28 -46 52 -51 52 -6 0 -27 -15 -48
-34 -34 -32 -36 -37 -24 -56 7 -12 12 -23 10 -24 -2 -2 -41 -32 -87 -67 -46
-35 -90 -68 -97 -74 -10 -7 -20 -3 -36 13 -18 18 -20 24 -10 31 22 13 10 41
-30 74 -36 28 -39 29 -56 14 -17 -16 -21 -15 -60 15 -45 35 -51 48 -27 68 16
13 13 14 83 -36 22 -17 24 -16 52 17 38 44 37 61 -5 93 -40 31 -42 36 -16 67
l18 23 42 -33 c36 -29 40 -35 30 -54 -10 -18 -7 -25 26 -54 20 -18 43 -33 50
-33 14 0 74 69 95 109 11 22 10 27 -9 40 -53 37 -267 209 -280 224 -21 26 -47
20 -75 -16 -30 -39 -32 -55 -9 -72 14 -11 10 -19 -40 -81 -31 -38 -69 -84 -83
-102 -24 -30 -28 -31 -44 -17 -9 8 -20 12 -23 8 -4 -3 -7 -2 -7 4 0 6 -13 16
-29 21 -20 7 -30 19 -34 42 -9 41 -3 50 32 50 36 0 94 58 110 110 17 59 5 114
-38 160 -28 31 -68 54 -185 105 -83 36 -156 63 -163 60 -8 -2 -22 -24 -33 -47
-19 -44 -14 -68 16 -68 8 0 14 -3 14 -6 0 -13 -103 -234 -109 -234 -3 0 -14 7
-23 14 -16 12 -16 16 2 64 28 72 26 154 -4 217 -47 100 -122 140 -261 140 -73
0 -97 -4 -130 -22 -69 -36 -116 -105 -130 -190 -7 -45 -12 -48 -100 -55 -26
-3 -30 -7 -30 -33 0 -44 -12 -55 -59 -55 l-43 0 -7 93 c-4 50 -10 107 -13 125
-5 29 -3 32 20 32 34 0 38 8 30 69 -7 58 9 55 -158 39z m711 -159 c108 -102
-17 -276 -143 -199 -40 24 -55 52 -56 105 -1 46 30 100 67 116 35 15 105 4
132 -22z"/>
<path d="M1765 4237 c-211 -70 -203 -64 -169 -145 11 -27 17 -32 37 -27 22 6
26 1 60 -108 38 -119 42 -137 30 -137 -29 -1 -33 -17 -18 -68 9 -29 19 -52 23
-52 4 0 59 17 122 39 112 37 115 39 114 67 -1 16 -7 41 -13 56 -9 25 -13 27
-37 18 -31 -12 -30 -13 -39 21 -6 25 -3 28 47 44 29 10 54 19 55 20 4 3 -29
99 -36 107 -4 4 -30 -1 -59 -12 l-52 -20 -15 37 c-8 20 -14 37 -13 38 2 1 25
10 52 19 40 16 50 16 57 5 5 -8 9 -18 9 -23 0 -13 68 0 95 18 l24 16 -26 75
c-18 53 -30 75 -41 75 -10 0 -102 -29 -207 -63z"/>
<path d="M1053 3843 c-94 -76 -174 -143 -177 -149 -5 -12 103 -153 118 -154 4
0 21 10 36 23 15 12 36 27 46 34 18 11 18 12 1 44 -10 19 -14 36 -9 41 9 9 44
-29 119 -133 41 -56 41 -56 22 -76 -20 -20 -20 -20 13 -61 18 -22 35 -41 38
-41 10 -1 195 151 198 162 1 7 -13 30 -32 52 -33 39 -35 39 -54 22 -19 -17
-21 -15 -96 77 -42 52 -76 100 -76 106 0 16 15 12 35 -10 25 -27 33 -26 84 18
l43 37 -33 41 c-19 22 -45 55 -58 72 -13 18 -29 32 -35 32 -7 0 -89 -62 -183
-137z"/>
<path d="M774 3545 c-41 -21 -66 -48 -153 -165 l-104 -140 24 -21 c13 -12 35
-28 48 -37 22 -15 25 -15 41 6 l18 22 101 -76 c99 -75 101 -77 84 -96 -17 -19
-16 -21 27 -59 25 -21 48 -39 51 -39 4 0 41 46 83 102 l76 102 -27 28 c-36 38
-63 45 -80 22 -12 -17 -15 -17 -29 -2 -25 25 -8 38 50 38 40 0 57 -5 71 -20
10 -11 25 -20 34 -20 15 0 131 141 131 158 -1 10 -71 62 -85 62 -7 0 -20 -9
-30 -20 -12 -13 -31 -20 -57 -20 -36 0 -38 2 -32 24 12 51 -31 124 -91 153
-49 24 -100 23 -151 -2z"/>
<path d="M1608 3294 c-23 -20 -46 -42 -50 -49 -8 -14 -21 -159 -19 -214 1 -19
5 -39 10 -45 10 -12 26 -76 23 -90 -2 -4 1 -13 6 -20 14 -18 9 -27 -51 -109
-32 -43 -71 -103 -87 -135 -28 -56 -29 -60 -24 -182 8 -236 23 -304 76 -341
l30 -22 20 21 c29 29 38 103 37 327 0 189 5 250 23 261 5 3 6 -6 1 -23 -8 -32
-9 -188 0 -251 7 -51 36 -106 59 -110 19 -4 43 52 39 90 -1 16 0 42 4 58 6 28
13 18 80 -118 41 -82 96 -188 124 -237 28 -48 51 -90 51 -92 0 -2 11 -19 24
-36 13 -18 59 -90 101 -162 42 -71 82 -133 88 -138 7 -4 71 -5 142 -2 72 3
181 6 243 7 61 1 112 5 112 8 0 3 19 6 43 6 94 3 242 25 342 50 9 2 60 13 143
29 12 2 50 13 85 24 34 11 96 30 137 42 72 22 322 115 385 144 59 27 92 84
136 231 13 43 11 87 -3 105 -16 19 -94 79 -127 98 -79 44 -247 59 -300 27 -5
-3 -29 -6 -53 -7 -23 0 -63 -7 -88 -14 -25 -7 -63 -17 -85 -21 -22 -4 -42 -8
-45 -9 -3 -1 -25 -7 -50 -15 -45 -13 -55 -15 -120 -24 -19 -2 -47 -9 -62 -15
-16 -6 -28 -9 -28 -6 0 2 -15 -1 -32 -6 -18 -6 -40 -12 -48 -14 -8 -1 -35 -8
-60 -15 -25 -7 -47 -12 -50 -12 -3 0 -21 -6 -40 -14 -19 -8 -36 -15 -37 -15
-2 1 -4 1 -5 0 -2 0 -10 -2 -18 -4 -8 -2 -35 -8 -60 -14 -41 -11 -66 -16 -110
-24 -8 -2 -41 -9 -72 -16 -52 -13 -62 -12 -105 5 -26 10 -50 19 -53 20 -3 0
-14 4 -25 9 -50 21 -121 47 -130 49 -5 1 -40 17 -77 36 -52 26 -68 39 -68 55
0 11 -20 95 -44 185 -66 250 -77 305 -83 425 -3 61 -9 115 -14 120 -4 6 -10
41 -12 78 -3 37 -11 74 -18 84 -18 21 -113 63 -143 63 -13 0 -44 -16 -68 -36z
m216 -382 c3 -27 20 -103 36 -169 16 -67 31 -132 34 -145 2 -13 7 -30 10 -38
3 -8 7 -26 10 -40 2 -14 9 -45 16 -70 7 -25 13 -58 15 -75 1 -16 7 -42 14 -58
6 -15 13 -38 15 -50 8 -42 55 -194 80 -261 14 -36 23 -66 21 -66 -5 0 -62 119
-100 210 -30 71 -164 451 -170 479 -5 24 -23 83 -37 121 -5 13 -11 47 -14 75
-3 27 -7 56 -9 63 -5 14 46 72 63 72 5 0 12 -22 16 -48z m-269 -203 c-15 -46
-17 -82 -21 -284 -4 -241 -5 -257 -20 -262 -18 -6 -33 51 -41 146 -3 47 -11
102 -18 121 -21 60 4 160 62 248 36 55 49 66 38 31z m346 -473 c10 -27 18 -51
15 -53 -6 -6 -166 331 -166 351 0 2 -5 17 -12 33 -6 15 -12 31 -13 36 -2 4 -3
8 -5 10 -8 10 -8 47 2 70 10 27 16 15 85 -185 41 -117 83 -235 94 -262z m1774
89 c28 -10 76 -33 108 -52 l59 -36 -29 -13 c-26 -12 -186 -58 -242 -70 -13 -3
-39 2 -59 12 -60 28 -152 25 -307 -14 -77 -19 -150 -41 -163 -49 -32 -20 -229
-19 -342 1 -47 9 -89 16 -95 16 -15 1 27 24 50 27 37 5 70 11 70 13 0 1 15 3
34 5 19 2 46 7 60 11 14 4 28 8 31 9 3 1 21 5 40 9 19 5 40 11 45 14 6 4 15 7
20 9 6 1 21 5 35 8 14 3 36 8 50 11 14 2 36 7 50 10 14 4 34 8 45 10 11 1 40
7 65 14 25 6 56 13 70 15 14 2 41 9 60 15 19 6 59 13 89 16 30 4 69 11 87 18
44 15 108 11 169 -9z m-1615 -71 c0 2 27 -9 60 -25 33 -16 64 -28 68 -27 12 2
66 -14 87 -28 11 -7 34 -15 52 -17 18 -3 46 -15 62 -26 16 -12 47 -22 68 -24
21 -1 44 -6 52 -11 8 -5 27 -10 43 -11 28 -3 46 -11 37 -19 -2 -2 -33 0 -69 4
-36 5 -126 11 -202 13 -83 4 -160 12 -197 23 l-61 17 -20 64 c-25 81 -25 86 0
73 11 -6 20 -9 20 -6z m1780 -133 c0 -21 -33 -40 -117 -66 -48 -16 -92 -29
-98 -30 -5 -2 -55 -16 -110 -33 -55 -16 -109 -32 -120 -35 -11 -3 -45 -13 -75
-22 -62 -18 -136 -33 -195 -41 -22 -3 -56 -10 -76 -15 -20 -5 -44 -6 -53 -3
-9 3 -16 2 -16 -2 0 -5 -19 -9 -42 -10 -24 -1 -88 -5 -143 -9 -112 -8 -216
-12 -451 -17 l-161 -3 -17 28 c-29 51 -23 56 52 49 67 -7 484 -9 597 -3 33 2
92 7 130 12 39 6 90 12 115 15 53 6 244 33 280 39 65 10 165 38 260 70 58 20
115 39 128 42 12 3 22 8 22 12 0 4 10 7 21 8 12 1 27 7 32 12 13 13 37 14 37
2z m-275 -40 c-25 -21 -318 -82 -465 -96 -54 -5 -125 -13 -125 -15 0 -8 -164
-12 -440 -11 -416 1 -413 1 -418 21 -3 8 -12 31 -20 50 -15 34 -14 36 4 36 10
0 19 -3 19 -6 0 -3 8 -6 18 -7 9 -1 46 -5 82 -8 36 -4 98 -8 138 -9 39 0 72
-4 72 -7 0 -9 808 -4 840 5 14 4 39 9 55 11 111 12 141 18 149 25 5 5 14 6 20
4 7 -3 23 0 37 5 31 13 46 14 34 2z m145 -86 c-19 -7 -48 -19 -65 -25 -16 -7
-34 -14 -40 -16 -5 -1 -23 -8 -40 -15 -16 -7 -33 -13 -37 -14 -5 -2 -9 -3 -10
-5 -2 -1 -10 -3 -18 -5 -8 -2 -34 -11 -57 -19 -22 -8 -52 -17 -65 -20 -28 -5
-53 -14 -93 -31 -32 -14 -77 -26 -107 -28 -10 -1 -18 -5 -18 -10 0 -4 -5 -5
-10 -2 -6 4 -19 4 -28 0 -9 -4 -26 -9 -37 -10 -11 -2 -36 -6 -55 -10 -19 -4
-51 -8 -70 -10 -19 -3 -46 -7 -60 -11 -33 -8 -99 -16 -132 -15 -16 0 -28 -3
-28 -7 0 -4 -17 -8 -37 -9 -21 0 -81 -4 -133 -8 -126 -10 -322 -6 -337 7 -7 6
-13 17 -13 24 0 8 -6 14 -12 15 -7 0 -4 4 7 9 11 5 99 9 195 10 96 0 227 7
290 15 63 7 118 11 122 9 4 -3 47 0 95 6 48 6 106 13 128 16 95 12 113 14 165
25 81 16 184 46 435 128 68 22 120 27 65 6z"/>
<path d="M545 3091 c-80 -21 -131 -68 -173 -161 -32 -69 -36 -184 -8 -242 37
-77 144 -138 244 -138 193 0 331 269 222 432 -56 84 -188 135 -285 109z m102
-156 c36 -10 83 -71 83 -108 0 -44 -33 -94 -74 -113 -75 -36 -176 23 -176 104
0 51 35 103 80 119 34 11 42 11 87 -2z"/>
<path d="M4333 3056 c-85 -27 -132 -68 -165 -144 -42 -94 -1 -255 81 -323 25
-21 31 -29 18 -29 -22 0 -22 -8 9 -235 18 -125 32 -194 41 -202 10 -8 24 -8
46 -2 18 5 49 9 70 9 46 0 53 15 41 79 -8 39 -12 46 -31 44 -17 -2 -23 4 -27
27 -18 93 -19 87 10 94 14 4 28 5 31 2 2 -2 8 -26 11 -53 l7 -48 45 -1 c62 -2
70 7 63 72 l-6 54 35 0 c32 0 36 -3 42 -31 11 -58 8 -79 -14 -79 -17 0 -20 -7
-20 -49 0 -63 13 -74 82 -65 91 12 101 19 95 62 -36 225 -47 303 -47 335 0 45
-13 52 -75 43 -42 -7 -45 -9 -45 -37 0 -27 -2 -29 -42 -29 -24 0 -74 -7 -113
-15 -91 -19 -105 -19 -105 3 0 10 -5 23 -10 28 -7 7 -5 23 6 49 l16 38 -43 37
c-40 34 -43 40 -47 96 -4 59 -3 61 32 92 19 17 51 34 70 38 49 9 106 -21 128
-66 24 -49 22 -57 -12 -65 -16 -4 -32 -11 -36 -16 -8 -14 28 -110 44 -116 7
-3 39 5 72 17 48 18 61 28 69 52 17 50 13 104 -14 170 -57 140 -181 205 -312
164z"/>
<path d="M323 2540 c-67 -30 -81 -65 -106 -264 -12 -96 -18 -178 -15 -182 4
-3 31 -7 60 -8 48 -1 53 1 56 22 4 26 12 27 133 12 129 -16 129 -16 129 -49 0
-27 3 -29 52 -34 28 -4 53 -5 55 -3 4 3 33 222 33 246 0 11 -14 20 -44 27 -50
11 -60 8 -70 -24 -4 -14 -15 -23 -27 -23 -15 0 -18 5 -13 23 3 13 6 50 7 83 2
71 -27 140 -70 166 -44 25 -133 29 -180 8z"/>
<path d="M1740 1358 c0 -27 4 -38 15 -38 12 0 15 -14 15 -70 0 -56 -3 -70 -15
-70 -10 0 -15 -11 -15 -35 l0 -35 125 0 125 0 0 50 0 50 -35 0 c-24 0 -35 -5
-35 -15 0 -10 -10 -15 -30 -15 -20 0 -30 5 -30 15 0 10 10 15 30 15 28 0 30 3
30 35 0 32 -2 35 -30 35 -23 0 -30 4 -30 20 0 16 7 20 30 20 19 0 29 -5 28
-12 -2 -8 11 -14 35 -16 l38 -3 -3 52 -3 51 -123 2 -122 1 0 -37z"/>
<path d="M3105 1382 c-61 -29 -78 -54 -82 -120 -4 -67 9 -97 56 -129 41 -28
135 -32 182 -8 89 46 92 193 6 250 -40 26 -116 29 -162 7z"/>
<path d="M3695 1391 c-10 -18 5 -71 21 -71 15 0 20 -72 8 -104 -10 -26 -41
-38 -64 -26 -17 9 -20 21 -20 70 0 47 3 60 15 60 10 0 15 11 15 35 l0 35 -75
0 -75 0 0 -35 c0 -24 5 -35 15 -35 12 0 15 -14 15 -65 0 -76 12 -106 50 -128
37 -22 123 -22 161 0 36 22 50 56 52 132 2 51 5 61 20 61 13 0 17 8 17 35 l0
35 -52 0 c-29 0 -63 3 -74 6 -12 3 -25 1 -29 -5z"/>
<path d="M4602 1384 c-63 -28 -75 -110 -22 -147 22 -15 22 -15 -6 -19 -26 -3
-29 -6 -26 -38 5 -52 32 -70 109 -70 67 0 116 17 127 45 25 66 -14 120 -93
131 -31 4 -50 11 -48 18 6 18 40 19 53 1 8 -11 23 -15 46 -13 29 3 33 7 36 35
2 25 -2 35 -21 48 -35 23 -115 28 -155 9z"/>
<path d="M200 1355 c0 -24 5 -35 15 -35 12 0 15 -14 15 -69 0 -52 -4 -70 -15
-75 -9 -3 -15 -18 -15 -36 l0 -30 128 0 129 0 -3 53 c-1 28 -3 56 -3 60 -1 5
-18 7 -38 5 -31 -2 -39 -7 -41 -25 -3 -17 -10 -23 -28 -23 -23 0 -24 3 -24 70
0 56 3 70 15 70 10 0 15 11 15 35 l0 35 -75 0 -75 0 0 -35z"/>
<path d="M730 1356 c0 -22 5 -36 14 -38 11 -2 8 -17 -15 -68 -17 -36 -36 -68
-44 -73 -8 -4 -15 -21 -15 -37 l0 -30 75 0 c74 0 75 0 75 25 0 14 -7 28 -15
31 -26 10 -5 24 36 24 37 0 51 -12 29 -25 -5 -3 -10 -17 -10 -31 0 -23 2 -24
75 -24 l75 0 0 30 c0 18 -7 33 -19 39 -10 6 -24 25 -31 43 -7 18 -26 63 -43
101 l-30 67 -78 0 -79 0 0 -34z"/>
<path d="M1220 1355 c0 -24 5 -35 15 -35 12 0 15 -14 15 -69 0 -52 -4 -70 -15
-75 -9 -3 -15 -18 -15 -36 l0 -30 70 0 70 0 0 30 c0 16 -7 33 -16 38 -13 7
-13 10 -1 21 12 10 19 7 36 -18 12 -16 21 -39 21 -50 0 -19 6 -21 65 -21 l65
0 0 31 c0 22 -5 32 -19 36 -11 3 -34 23 -52 45 l-32 41 31 29 c18 15 39 28 46
28 18 0 29 31 20 54 -5 13 -21 16 -81 16 l-75 0 4 -35 c3 -25 -1 -40 -14 -52
-16 -14 -18 -14 -18 0 0 8 4 17 9 19 5 2 6 18 4 36 l-5 32 -64 0 -64 0 0 -35z"/>
<path d="M2540 1335 c0 -52 2 -55 25 -56 14 -1 30 -2 37 -3 7 -1 15 10 19 24
4 16 7 -1 8 -46 1 -55 -2 -73 -14 -78 -9 -3 -15 -18 -15 -36 l0 -30 75 0 75 0
0 35 c0 24 -5 35 -15 35 -12 0 -15 14 -15 68 1 58 2 65 14 50 8 -11 26 -18 45
-18 31 0 31 0 31 55 l0 55 -135 0 -135 0 0 -55z"/>
<path d="M4050 1355 c0 -24 5 -35 15 -35 12 0 15 -14 15 -70 0 -56 -3 -70 -15
-70 -10 0 -15 -11 -15 -35 l0 -35 74 0 c71 0 74 1 79 25 3 18 -2 30 -16 40
-12 8 -17 18 -13 22 11 11 46 -38 46 -64 0 -21 5 -23 59 -23 55 0 59 2 65 25
8 32 1 45 -25 45 -29 0 -34 25 -10 49 15 15 21 34 21 64 -1 79 -33 97 -174 97
l-106 0 0 -35z"/>
</g>
</svg>
