<svg data-name="Layer 1" xmlns="http://www.w3.org/2000/svg" xmlns:xlink="http://www.w3.org/1999/xlink" viewBox="0 0 374.24 306.74"><defs><linearGradient id="a" x1="119.32" y1="148.05" x2="122.41" y2="-55.23" gradientTransform="matrix(1 0 0 -1 0 352)" gradientUnits="userSpaceOnUse"><stop offset=".01"/><stop offset=".08" stop-opacity=".69"/><stop offset=".21" stop-opacity=".32"/><stop offset="1" stop-opacity="0"/></linearGradient><linearGradient id="d" x1="-737.38" y1="90.09" x2="-734.81" y2="88.16" gradientTransform="rotate(180 -252.805 176)" xlink:href="#a"/><linearGradient id="e" x1="-982.47" y1="326.9" x2="-328.94" y2="-161.88" gradientTransform="rotate(180 -252.805 176)" xlink:href="#a"/><linearGradient id="f" x1="-762.66" y1="184.94" x2="-694.83" y2="-30.49" gradientTransform="rotate(180 -252.805 176)" xlink:href="#a"/><linearGradient id="g" x1="-724.19" y1="225.84" x2="-765.66" y2="-54.52" gradientTransform="rotate(180 -266.045 167.505)" xlink:href="#a"/><linearGradient id="h" x1="-765.32" y1="186.64" x2="-797.28" y2="-29.39" gradientTransform="rotate(180 -266.045 167.505)" xlink:href="#a"/><linearGradient id="i" x1="-787.53" y1="122.49" x2="-804.53" y2="78.76" gradientTransform="rotate(180 -252.805 176)" xlink:href="#a"/><linearGradient id="j" x1="-712.32" y1="295.39" x2="-639.47" y2="-340.86" gradientTransform="rotate(180 -252.805 176)" xlink:href="#a"/><linearGradient id="k" x1="224.71" y1="268.52" x2="107.66" y2="67.13" xlink:href="#a"/><linearGradient id="l" x1="189.86" y1="254.1" x2="226.57" y2="134.07" gradientTransform="matrix(1 0 0 -1 -26.48 335.01)" xlink:href="#a"/><linearGradient id="c" x1="202.6" y1="221.13" x2="367.36" y2="55.32" gradientTransform="matrix(1 0 0 -1 0 352)" gradientUnits="userSpaceOnUse"><stop offset="0" stop-color="#fff" stop-opacity="0"/><stop offset=".54" stop-color="#fff"/></linearGradient><linearGradient id="b" x1="224.95" y1="119.19" x2="220.16" y2="216.78" gradientTransform="matrix(1 0 0 -1 0 352)" gradientUnits="userSpaceOnUse"><stop offset=".01"/><stop offset=".13" stop-opacity=".69"/><stop offset=".25" stop-opacity=".32"/><stop offset="1" stop-opacity="0"/></linearGradient><linearGradient id="m" x1="291.73" y1="112.6" x2="275.79" y2="151.72" xlink:href="#b"/><linearGradient id="n" x1="98.76" y1="129.88" x2="120.94" y2="129.88" xlink:href="#a"/><linearGradient id="o" x1="89.54" y1="129.68" x2="97.96" y2="129.68" xlink:href="#a"/><linearGradient id="p" x1="86.84" y1="188.87" x2="108.8" y2="127.49" xlink:href="#a"/><linearGradient id="q" x1="148.71" y1="96.14" x2="163.73" y2="162.02" xlink:href="#c"/><linearGradient id="r" x1="146.63" y1="96.61" x2="161.65" y2="162.49" xlink:href="#c"/><linearGradient id="s" x1="150.08" y1="95.82" x2="165.09" y2="161.71" xlink:href="#c"/><linearGradient id="t" x1="147.9" y1="96.32" x2="162.92" y2="162.2" xlink:href="#c"/><linearGradient id="u" x1="147.45" y1="96.42" x2="162.46" y2="162.31" xlink:href="#c"/><linearGradient id="v" x1="136.58" y1="98.9" x2="151.6" y2="164.78" xlink:href="#c"/><linearGradient id="w" x1="137.12" y1="98.77" x2="152.13" y2="164.66" xlink:href="#c"/><linearGradient id="x" x1="112.46" y1="104.4" x2="127.47" y2="170.28" xlink:href="#c"/><linearGradient id="y" x1="113.57" y1="104.15" x2="128.59" y2="170.03" xlink:href="#c"/><linearGradient id="z" x1="122.23" y1="102.17" x2="137.25" y2="168.05" xlink:href="#c"/><linearGradient id="A" x1="104.71" y1="106.16" x2="119.73" y2="172.05" xlink:href="#c"/><linearGradient id="B" x1="118.28" y1="103.07" x2="133.3" y2="168.96" xlink:href="#c"/><linearGradient id="C" x1="116.2" y1="103.54" x2="131.22" y2="169.43" xlink:href="#c"/><linearGradient id="D" x1="119.66" y1="102.76" x2="134.67" y2="168.64" xlink:href="#c"/><linearGradient id="E" x1="117.46" y1="103.25" x2="132.48" y2="169.14" xlink:href="#c"/><linearGradient id="F" x1="135.33" y1="99.18" x2="150.34" y2="165.07" xlink:href="#c"/><linearGradient id="G" x1="133.22" y1="99.66" x2="148.23" y2="165.55" xlink:href="#c"/><linearGradient id="H" x1="136.68" y1="98.88" x2="151.7" y2="164.76" xlink:href="#c"/><linearGradient id="I" x1="134" y1="99.49" x2="149.02" y2="165.37" xlink:href="#c"/></defs><path d="M170.52.32a218.94 218.94 0 00-104.33 33c-14.67 9.3-28.56 20.62-37.67 35.43s-12.88 33.57-7 49.91c3.51 9.71 10.11 17.95 14.82 27.13s7.42 20.48 2.73 29.67c-5.38 10.64-18.36 14.55-27.55 22.21-14.59 12.14-12.93 23.1-8 38.94 4.27 13.84 11.13 25.82 22.26 35.28 21.74 18.48 51.84 24.19 79.17 28.73 39.6 6.58 80.2 8.3 120.06 3 19.51-2.58 37.72-8 56.63-12.77 18.48-4.63 37.1-10.41 52.86-21.45a93.21 93.21 0 0028.4-120.88c-15.76-29-45.66-47.7-63.83-75.21-10.68-16.16-17.11-35.07-29.55-49.88-11.43-13.42-41.59-18.7-57.94-21.24A188.43 188.43 0 00186.82.06c-5.43-.12-10.87-.05-16.3.26z" fill="#4fc3f7" opacity=".18" style="isolation:isolate"/></svg>