<?xml version="1.0" standalone="no"?>
<!DOCTYPE svg PUBLIC "-//W3C//DTD SVG 20010904//EN"
 "http://www.w3.org/TR/2001/REC-SVG-20010904/DTD/svg10.dtd">
<svg version="1.0" xmlns="http://www.w3.org/2000/svg"
 width="500.000000pt" height="500.000000pt" viewBox="0 0 500.000000 500.000000"
 preserveAspectRatio="xMidYMid meet">
<metadata>
Created by potrace 1.16, written by Peter Selinger 2001-2019
</metadata>
<g transform="translate(0.000000,500.000000) scale(0.100000,-0.100000)"
fill="#000000" stroke="none">
<path d="M0 2500 l0 -2500 2500 0 2500 0 0 2500 0 2500 -2500 0 -2500 0 0
-2500z m921 1589 c64 -32 60 -20 75 -221 5 -67 10 -88 22 -90 13 -2 16 -24 18
-131 4 -227 31 -376 130 -742 30 -110 65 -253 78 -317 24 -118 38 -150 66
-156 8 -2 22 -10 31 -18 8 -8 21 -14 28 -14 6 0 14 -7 17 -15 4 -8 15 -15 25
-15 10 0 27 -8 37 -18 10 -10 25 -17 33 -15 8 3 6 -1 -4 -7 -9 -6 -15 -16 -11
-22 4 -6 -2 -6 -15 2 -12 6 -19 15 -16 19 2 5 -3 15 -13 22 -15 13 -16 12 -4
-3 8 -9 9 -19 4 -22 -10 -6 -70 16 -85 30 -4 4 -16 9 -26 11 -16 2 -18 -2 -11
-30 4 -17 10 -42 14 -54 5 -17 3 -23 -7 -23 -9 0 -14 11 -15 31 0 17 -6 37
-13 45 -6 8 -8 14 -5 14 4 0 2 9 -4 20 -8 15 -8 20 2 20 7 0 2 7 -10 16 -15
11 -22 25 -22 49 0 19 -36 180 -79 357 -101 410 -137 571 -152 684 l-12 91
-44 -33 c-24 -18 -56 -41 -71 -50 -48 -28 -53 -45 -43 -139 18 -156 68 -330
230 -803 56 -161 101 -296 101 -298 0 -20 -21 16 -39 68 -13 35 -34 92 -48
128 -75 191 -180 505 -219 655 l-29 110 -6 -46 c-4 -25 -19 -79 -33 -119 -15
-41 -24 -82 -20 -94 18 -65 120 -318 185 -461 12 -27 23 -52 24 -55 0 -3 15
-34 32 -70 16 -36 41 -87 54 -115 12 -27 27 -53 31 -56 5 -3 10 -16 11 -27 1
-12 4 -22 7 -22 4 0 7 -7 7 -15 0 -8 -4 -12 -8 -9 -9 5 -64 115 -64 127 0 4
-7 12 -15 17 -13 9 -13 10 0 10 12 1 12 2 -2 10 -18 11 -25 23 -109 192 -57
115 -149 336 -149 358 0 6 -5 8 -10 5 -7 -4 -10 -70 -8 -183 2 -159 1 -181
-17 -220 -19 -42 -21 -42 -43 -27 -12 9 -29 30 -38 46 -63 123 -63 532 1 754
13 45 13 48 -1 30 -30 -39 -85 -164 -105 -241 -19 -73 -21 -105 -21 -399 0
-475 -12 -564 -77 -573 -69 -11 -128 131 -141 341 -5 75 -15 167 -21 203 -6
36 -9 107 -7 157 8 156 63 268 237 487 65 81 79 105 72 119 -5 9 -16 55 -25
102 -8 46 -23 104 -34 129 -25 56 -37 147 -22 165 6 7 9 25 8 41 -4 42 13 244
21 244 3 0 20 13 36 28 17 15 54 46 84 69 l55 41 70 -25 c39 -14 96 -38 127
-54z m3379 -1468 c19 -7 58 -19 85 -28 28 -9 59 -24 71 -34 11 -11 28 -19 37
-19 10 0 36 -17 60 -38 23 -21 61 -53 85 -71 75 -58 97 -142 46 -176 -23 -15
-26 -22 -21 -56 3 -21 1 -41 -4 -45 -5 -3 -16 -31 -25 -62 -21 -73 -46 -121
-77 -150 -14 -13 -30 -36 -36 -50 -8 -19 -27 -33 -59 -45 -26 -10 -74 -29
-107 -42 -372 -147 -578 -220 -713 -251 -35 -8 -97 -28 -138 -44 -41 -17 -118
-37 -171 -46 -53 -8 -153 -28 -222 -44 -184 -42 -335 -64 -656 -95 -281 -27
-806 -45 -831 -27 -16 11 -84 115 -154 237 -34 61 -88 148 -119 195 -98 147
-189 306 -197 344 -2 11 -9 23 -16 28 -10 6 -9 8 4 8 10 0 42 -44 89 -125 40
-68 74 -123 76 -122 1 2 -17 53 -41 113 -55 137 -62 159 -47 150 6 -4 11 -16
11 -27 0 -10 5 -19 10 -19 6 0 10 -6 10 -13 0 -33 258 -526 314 -600 32 -43
60 -76 62 -74 2 2 -20 51 -49 109 -65 129 -131 296 -192 483 -25 77 -50 148
-55 158 -8 12 -7 17 4 17 16 0 29 -27 20 -41 -3 -5 0 -9 5 -9 6 0 11 -8 11
-17 1 -22 25 -56 43 -59 39 -7 67 -14 107 -29 40 -15 241 -33 420 -37 25 -1
154 -8 287 -16 154 -9 275 -11 330 -6 88 8 88 8 38 15 -51 8 -156 26 -304 53
-46 9 -92 22 -101 31 -9 8 -35 15 -57 15 -55 0 -127 23 -162 52 -18 15 -54 30
-92 37 -35 7 -95 28 -134 47 -38 19 -78 34 -87 34 -9 0 -19 4 -23 9 -3 6 -15
8 -26 6 -15 -3 -19 0 -15 11 3 9 1 12 -4 9 -6 -3 -15 -3 -22 1 -8 5 -3 10 14
15 28 7 146 -28 300 -90 91 -37 124 -38 248 -7 52 13 122 29 155 35 65 13 204
50 380 101 230 67 363 99 595 146 41 8 86 19 100 25 13 6 67 19 120 29 52 10
140 30 194 44 55 14 129 28 165 30 36 3 98 14 136 25 57 16 91 20 180 17 61
-2 126 -9 145 -15z"/>
<path d="M645 4066 l-59 -53 39 -13 c22 -7 64 -28 93 -47 60 -38 64 -37 140
24 75 61 74 69 -13 108 -106 48 -127 46 -200 -19z"/>
<path d="M863 3945 c-80 -61 -89 -81 -78 -168 10 -69 21 -97 40 -97 9 0 47 16
85 36 65 33 68 37 59 60 -5 14 -9 56 -9 93 0 73 -8 131 -19 130 -3 0 -38 -25
-78 -54z"/>
<path d="M568 3900 c-1 -42 -1 -99 0 -126 l4 -49 66 -23 c37 -13 79 -26 94
-29 l26 -5 -3 102 c-2 62 -9 107 -16 117 -23 27 -101 76 -134 83 l-33 7 -4
-77z"/>
<path d="M770 3422 c0 -10 -21 -69 -46 -132 -25 -63 -52 -148 -60 -189 -17
-89 -19 -310 -4 -407 14 -88 51 -224 61 -224 15 0 20 126 11 237 -12 133 -4
208 39 383 36 147 47 261 30 313 -13 39 -31 50 -31 19z"/>
<path d="M649 3328 c-13 -18 -48 -64 -79 -103 -129 -160 -202 -284 -234 -395
-21 -73 -22 -184 -2 -254 9 -30 21 -120 26 -198 11 -165 19 -200 60 -257 45
-62 50 -58 76 62 10 51 14 151 14 400 0 289 3 344 20 426 18 90 67 206 128
304 29 48 22 60 -9 15z"/>
<path d="M4000 2468 c-36 -3 -83 -13 -105 -22 -22 -8 -58 -15 -80 -16 -41 0
-75 -6 -305 -58 -74 -17 -202 -45 -285 -62 -82 -18 -224 -54 -315 -80 -91 -26
-208 -56 -260 -65 -137 -25 -308 -62 -360 -79 l-45 -14 43 -11 c100 -26 124
-31 267 -56 124 -22 182 -27 338 -27 182 -1 189 0 212 22 24 22 166 64 430
126 148 35 294 37 377 5 32 -12 62 -29 67 -38 5 -10 16 -14 27 -11 11 3 80 22
154 43 74 20 158 42 185 50 71 19 153 51 183 71 l25 17 -24 18 c-54 43 -189
119 -260 148 -91 35 -180 49 -269 39z"/>
<path d="M4455 2143 c-175 -53 -235 -73 -271 -88 -33 -14 -100 -27 -354 -71
-393 -68 -464 -73 -1005 -74 -700 -1 -1141 24 -1331 75 -72 19 -84 20 -89 7
-3 -8 0 -21 6 -28 6 -8 9 -20 6 -29 -4 -8 -1 -17 5 -21 7 -5 8 -2 3 6 -5 9 -4
11 3 6 7 -4 12 -15 12 -24 0 -10 6 -26 14 -37 7 -11 33 -65 56 -120 23 -55 56
-126 72 -159 l30 -59 81 7 c45 4 253 11 462 16 367 8 462 14 795 46 383 36
583 85 1395 339 66 21 130 40 142 42 22 5 53 73 53 116 0 23 8 25 -180 -47
-385 -150 -622 -213 -960 -256 -85 -11 -204 -27 -265 -35 -299 -42 -636 -58
-1070 -52 -366 6 -488 16 -514 42 -25 24 12 29 122 15 301 -37 968 -32 1287
10 41 5 140 17 220 25 227 25 547 78 655 109 28 8 91 26 140 40 50 13 173 58
275 99 102 42 201 78 220 82 19 3 46 15 60 25 31 24 24 24 -75 -7z"/>
<path d="M4390 1910 c-83 -18 -246 -65 -425 -125 -227 -76 -442 -138 -535
-154 -263 -48 -433 -68 -710 -86 -129 -8 -244 -18 -255 -21 -11 -4 -191 -10
-400 -15 -209 -4 -395 -11 -412 -15 l-33 -6 18 -27 c10 -14 29 -50 42 -78 l23
-53 207 0 c383 0 857 54 1335 151 206 42 254 54 300 74 22 9 106 36 187 60
128 38 184 58 368 130 19 7 80 30 135 50 159 59 185 70 185 78 0 4 9 16 20 27
23 23 16 24 -50 10z"/>
</g>
</svg>
