<?xml version="1.0" standalone="no"?>
<!DOCTYPE svg PUBLIC "-//W3C//DTD SVG 20010904//EN"
 "http://www.w3.org/TR/2001/REC-SVG-20010904/DTD/svg10.dtd">
<svg version="1.0" xmlns="http://www.w3.org/2000/svg"
 width="300.000000pt" height="300.000000pt" viewBox="0 0 300.000000 300.000000"
 preserveAspectRatio="xMidYMid meet">
<metadata>
Created by potrace 1.10, written by Peter Selinger 2001-2011
</metadata>
<g transform="translate(0.000000,300.000000) scale(0.100000,-0.100000)"
fill="#000000" stroke="none">
<path d="M464 2326 l-51 -45 -2 -78 c-1 -43 -6 -82 -10 -86 -9 -9 4 -94 18
-111 5 -6 12 -34 16 -61 3 -28 10 -57 15 -65 6 -9 -11 -39 -56 -96 -92 -118
-129 -200 -128 -289 1 -297 65 -488 131 -389 15 23 17 53 15 243 0 119 3 245
9 280 9 56 69 211 82 211 3 0 -4 -28 -15 -62 -43 -137 -33 -398 17 -456 l23
-27 12 30 c7 17 11 79 11 143 -1 61 1 112 3 112 2 0 12 -24 22 -52 41 -126
197 -427 328 -635 39 -61 92 -146 118 -187 l47 -76 168 0 c300 0 553 31 908
109 118 27 412 128 645 222 51 21 135 171 123 219 -3 12 1 22 11 26 25 10 21
69 -7 96 -81 80 -155 119 -259 137 -55 9 -80 9 -140 -4 -40 -8 -84 -15 -98
-15 -14 0 -68 -11 -120 -24 -52 -13 -140 -33 -195 -46 -237 -53 -277 -63 -405
-100 -74 -21 -197 -53 -272 -70 l-137 -31 -63 25 c-35 13 -97 36 -138 51 -41
14 -110 45 -152 68 -71 37 -78 44 -84 76 -3 20 -24 106 -46 191 -70 270 -79
312 -84 440 -4 87 -10 128 -20 136 -8 7 -14 38 -16 89 l-3 78 -56 28 c-92 47
-106 46 -165 -5z m144 -9 l43 -23 -23 -20 c-60 -54 -66 -55 -122 -26 -28 15
-53 28 -56 30 -3 2 11 17 30 33 42 34 71 36 128 6z m64 -134 l4 -71 -46 -20
c-25 -11 -48 -17 -52 -14 -4 4 -10 30 -13 57 -7 54 -7 55 60 109 17 14 33 22
36 18 4 -4 9 -39 11 -79z m-183 53 c15 -8 33 -21 40 -30 12 -15 24 -136 13
-136 -3 0 -29 8 -59 18 l-53 17 0 73 c0 79 6 85 59 58z m211 -162 c0 -17 -67
-84 -83 -84 -5 0 8 19 27 42 20 23 36 45 36 50 0 4 5 8 10 8 6 0 10 -7 10 -16z
m-195 -17 c19 -10 18 -12 -10 -17 -16 -4 -34 -3 -39 1 -5 4 -15 5 -22 2 -9 -3
-14 2 -14 17 0 19 4 21 33 15 17 -4 41 -12 52 -18z m124 -12 c-24 -24 -41 -34
-52 -29 -27 10 -20 22 26 43 61 28 66 25 26 -14z m-111 -44 c-10 -16 -16 -17
-41 -9 -34 12 -20 28 26 28 24 0 26 -2 15 -19z m188 -81 c8 -51 39 -192 70
-313 30 -121 57 -237 59 -256 12 -98 130 -436 201 -579 24 -47 42 -88 40 -90
-7 -6 -93 131 -134 214 -64 129 -116 255 -196 481 -90 256 -134 405 -146 497
-9 76 -10 75 53 113 15 10 27 22 27 27 0 32 13 -15 26 -94z m-131 74 c19 -14
19 -15 -10 -38 l-30 -24 -6 21 c-5 20 9 57 21 57 3 0 14 -7 25 -16z m-82 -30
c21 -8 21 -12 -2 -47 l-18 -29 -7 29 c-4 15 -9 36 -13 47 -3 13 -1 17 8 12 8
-3 22 -9 32 -12z m81 -56 c10 -40 6 -80 -19 -188 -20 -84 -25 -133 -25 -245 0
-81 -4 -134 -9 -125 -23 41 -36 134 -35 250 0 111 3 133 28 200 16 41 30 87
33 103 6 33 18 35 27 5z m-57 -15 c-27 -31 -86 -142 -103 -196 -14 -42 -17
-98 -19 -282 -2 -301 -10 -337 -58 -273 -14 18 -21 53 -28 134 -5 60 -14 124
-20 143 -29 87 14 206 127 357 38 51 76 101 84 113 8 12 19 21 24 21 5 0 2 -8
-7 -17z m188 -453 c63 -178 127 -346 169 -442 33 -76 6 -34 -77 120 -83 152
-185 373 -223 479 -17 49 -17 54 -1 106 9 29 17 65 18 78 0 13 11 -14 23 -61
12 -47 53 -173 91 -280z m1890 -20 c-3 -5 -13 -10 -21 -10 -8 0 -12 5 -9 10 3
6 13 10 21 10 8 0 12 -4 9 -10z m35 0 c0 -5 -4 -10 -10 -10 -5 0 -10 5 -10 10
0 6 5 10 10 10 6 0 10 -4 10 -10z m60 -10 c10 -6 5 -9 -18 -8 -18 1 -32 5 -32
10 0 11 31 10 50 -2z m-150 -9 c-17 -9 -105 -22 -96 -14 7 7 65 21 91 22 16 0
17 -1 5 -8z m-115 -11 c-3 -5 -10 -10 -16 -10 -5 0 -9 5 -9 10 0 6 7 10 16 10
8 0 12 -4 9 -10z m350 -16 c59 -32 131 -88 139 -110 8 -21 -11 -54 -30 -54
-11 0 -13 6 -9 21 5 15 2 22 -14 26 -11 3 -23 13 -26 22 -2 9 -34 35 -70 59
-36 23 -63 47 -60 52 9 14 15 13 70 -16z m-430 6 c-3 -5 -12 -10 -18 -10 -7 0
-6 4 3 10 19 12 23 12 15 0z m295 0 c0 -5 -2 -10 -4 -10 -3 0 -8 5 -11 10 -3
6 -1 10 4 10 6 0 11 -4 11 -10z m-330 -10 c0 -5 -7 -10 -16 -10 -8 0 -12 5 -9
10 3 6 10 10 16 10 5 0 9 -4 9 -10z m308 -5 c3 -3 -21 -5 -54 -5 -32 0 -73 -4
-91 -9 -17 -5 -132 -30 -255 -55 -123 -26 -273 -59 -335 -75 -68 -17 -110 -24
-107 -17 3 7 37 18 77 25 39 7 81 18 92 24 11 6 31 11 45 13 55 5 136 21 150
29 8 5 34 10 57 12 23 1 51 7 62 13 11 5 33 10 50 10 16 0 40 5 53 10 56 25
239 43 256 25z m-348 1 c0 -3 -4 -8 -10 -11 -5 -3 -10 -1 -10 4 0 6 5 11 10
11 6 0 10 -2 10 -4z m456 -29 c12 4 15 3 10 -5 -4 -7 -1 -12 8 -12 9 0 16 -5
16 -11 0 -5 4 -8 8 -5 5 3 21 -6 38 -20 21 -18 2 -11 -66 23 -81 41 -91 49
-70 53 18 4 27 1 32 -12 5 -12 13 -15 24 -11z m-521 13 c-3 -5 -14 -10 -23
-10 -15 0 -15 2 -2 10 20 13 33 13 25 0z m-48 -16 c-3 -3 -12 -4 -19 -1 -8 3
-5 6 6 6 11 1 17 -2 13 -5z m564 -41 c46 -24 95 -51 108 -62 l25 -19 -40 -17
c-21 -9 -73 -26 -114 -37 -41 -11 -100 -28 -131 -38 -55 -16 -58 -16 -84 4
-46 33 -158 34 -285 1 -58 -14 -129 -32 -157 -39 -29 -7 -60 -20 -69 -27 -29
-24 -245 -17 -396 12 -71 13 -128 27 -128 30 0 3 62 18 138 33 75 14 193 42
262 60 134 37 183 48 415 96 83 17 166 35 185 40 19 4 69 8 111 7 67 -2 85 -7
160 -44z m-624 31 c-3 -3 -12 -4 -19 -1 -8 3 -5 6 6 6 11 1 17 -2 13 -5z m-97
-34 c0 -5 -7 -10 -16 -10 -8 0 -12 5 -9 10 3 6 10 10 16 10 5 0 9 -4 9 -10z
m-1104 -18 c8 -8 39 -20 239 -95 39 -15 85 -30 103 -33 18 -4 35 -11 38 -15 8
-14 74 -39 101 -39 13 0 33 -4 43 -10 10 -5 73 -19 141 -30 67 -11 125 -23
128 -26 5 -6 -105 -2 -394 12 -155 8 -282 22 -302 32 -12 7 -30 12 -41 12 -15
0 -24 15 -41 73 -12 39 -26 84 -31 100 -9 27 -3 35 16 19z m992 -7 c-3 -3 -14
-7 -24 -9 -11 -2 -32 -7 -49 -10 -28 -6 -27 -5 5 8 34 14 78 21 68 11z m977
-25 c3 -5 2 -10 -4 -10 -5 0 -13 5 -16 10 -3 6 -2 10 4 10 5 0 13 -4 16 -10z
m-1090 -10 c-3 -5 -10 -10 -16 -10 -5 0 -9 5 -9 10 0 6 7 10 16 10 8 0 12 -4
9 -10z m-27 -40 c-15 -9 -107 -30 -220 -50 -27 -5 -52 -12 -58 -15 -5 -3 -10
-2 -10 4 0 8 28 18 85 27 69 12 157 33 162 38 4 3 18 6 32 6 22 -1 23 -2 9
-10z m1132 -69 c-6 -23 -15 -41 -19 -41 -8 0 2 63 16 100 12 31 14 -18 3 -59z
m-1478 27 c-9 -9 -7 -14 6 -24 22 -17 3 -17 -38 0 l-33 13 29 11 c39 14 50 14
36 0z m47 -5 c-7 -10 -15 -20 -16 -22 -2 -2 -3 5 -3 17 0 14 6 22 16 22 14 0
15 -3 3 -17z m1398 10 c-4 -3 -60 -26 -125 -50 -296 -110 -369 -127 -772 -179
-167 -22 -681 -31 -820 -14 -56 6 -105 9 -108 6 -34 -35 288 -54 613 -38 240
12 596 55 745 91 93 22 274 82 388 129 76 31 81 30 62 -24 -9 -27 -20 -32
-123 -62 -61 -19 -132 -40 -157 -47 -459 -138 -572 -157 -1030 -175 -146 -5
-308 -12 -361 -14 l-97 -5 -61 141 c-33 78 -60 143 -58 144 2 2 23 -3 47 -10
100 -30 291 -40 745 -41 391 0 462 2 545 18 52 10 122 22 155 28 98 16 184 38
290 74 98 33 135 42 122 28z m-388 -47 c32 -18 23 -22 -99 -42 -14 -2 -46 -9
-72 -14 -71 -14 -305 -25 -293 -13 8 8 169 55 260 76 45 10 181 6 204 -7z
m320 -113 c-11 -18 -321 -140 -424 -167 -27 -8 -70 -21 -95 -31 -173 -65 -732
-145 -1018 -145 l-121 0 -24 49 -23 49 51 6 c27 3 124 6 215 6 91 0 224 4 295
10 438 35 542 53 845 152 112 36 283 86 303 87 4 1 2 -7 -4 -16z"/>
</g>
</svg>
