<?xml version="1.0" standalone="no"?>
<!DOCTYPE svg PUBLIC "-//W3C//DTD SVG 20010904//EN"
 "http://www.w3.org/TR/2001/REC-SVG-20010904/DTD/svg10.dtd">
<svg version="1.0" xmlns="http://www.w3.org/2000/svg"
 width="300.000000pt" height="300.000000pt" viewBox="0 0 300.000000 300.000000"
 preserveAspectRatio="xMidYMid meet">
<metadata>
Created by potrace 1.10, written by Peter Selinger 2001-2011
</metadata>
<g transform="translate(0.000000,300.000000) scale(0.100000,-0.100000)"
fill="#000000" stroke="none">
<path d="M1310 2601 c-43 -4 -65 -10 -64 -18 1 -7 2 -22 3 -33 0 -13 8 -20 21
-20 17 0 20 -7 20 -49 0 -27 3 -63 6 -80 5 -24 3 -31 -10 -31 -12 0 -16 -9
-16 -35 l0 -35 58 6 c31 3 89 9 127 12 l70 7 -4 50 c-4 62 -6 65 -41 65 -24 0
-29 -5 -32 -27 -2 -23 -8 -29 -35 -31 -31 -3 -32 -2 -38 45 -3 26 -7 63 -10
81 -3 27 -1 32 17 32 16 0 19 5 14 23 -3 12 -6 28 -6 35 0 6 -3 11 -7 10 -5
-1 -37 -4 -73 -7z m50 -40 c0 -6 -5 -13 -11 -17 -7 -4 -10 -32 -7 -80 5 -84
26 -119 66 -111 13 2 20 1 15 -4 -4 -4 -28 -8 -53 -10 -71 -3 -73 -2 -55 24 8
13 13 25 11 28 -2 2 -7 35 -10 72 -3 38 -10 74 -15 81 -6 7 -8 16 -4 19 10 11
63 8 63 -2z m130 -181 c0 -25 -4 -30 -25 -30 l-26 0 21 22 c11 12 20 25 20 30
0 4 2 8 5 8 3 0 5 -13 5 -30z"/>
<path d="M1602 2582 c-50 -27 -72 -67 -72 -134 0 -69 28 -108 95 -134 68 -26
128 -15 174 30 34 35 36 39 36 106 0 62 -3 71 -29 99 -49 51 -142 66 -204 33z
m63 -22 c-3 -5 -12 -10 -19 -10 -23 0 -58 -48 -63 -88 -7 -51 17 -88 72 -113
22 -10 32 -19 22 -19 -27 0 -80 25 -100 47 -20 23 -33 93 -16 93 5 0 7 4 4 10
-10 17 28 70 55 76 14 3 30 7 35 9 6 2 11 4 13 4 2 1 0 -3 -3 -9z m116 -29
c25 -25 29 -37 29 -83 0 -47 -4 -58 -28 -82 -16 -14 -41 -29 -55 -32 -34 -6
-35 3 -2 16 32 12 65 66 65 107 0 22 -10 44 -31 68 -37 42 -20 47 22 6z m-41
-23 c26 -28 26 -78 -1 -112 -51 -64 -157 3 -128 82 5 15 17 33 26 40 27 20 80
15 103 -10z"/>
<path d="M1068 2542 c-59 -20 -109 -40 -113 -43 -11 -12 15 -61 30 -56 10 4
20 -12 36 -61 12 -37 24 -73 27 -79 2 -7 -3 -13 -12 -13 -18 0 -20 -9 -6 -44
l9 -25 63 21 c78 26 81 28 69 61 -7 19 -15 25 -27 20 -14 -5 -33 11 -34 29 0
3 13 9 30 13 36 8 40 13 33 48 -6 29 -16 31 -65 12 -9 -4 -19 4 -26 20 -12 27
-14 26 56 50 6 2 12 -2 12 -10 0 -17 9 -19 43 -6 25 10 25 10 10 55 -9 25 -18
46 -22 45 -3 0 -54 -17 -113 -37z m109 -17 c2 -6 -14 -11 -34 -11 -64 -1 -92
-18 -93 -55 0 -27 39 -69 58 -62 12 5 11 1 -5 -17 -23 -24 -20 -42 15 -82 8
-10 13 -18 11 -18 -2 0 -18 -4 -35 -9 -29 -8 -30 -7 -26 18 5 34 -34 150 -59
177 l-19 20 77 27 c81 27 104 29 110 12z"/>
<path d="M1902 2525 c-15 -33 -15 -35 3 -35 21 0 19 -9 -16 -85 -24 -50 -36
-66 -49 -62 -11 3 -21 -5 -29 -25 -7 -16 -12 -30 -10 -32 8 -5 127 -56 132
-56 12 0 18 53 6 60 -8 5 -8 13 -2 25 9 16 11 16 28 -1 13 -14 16 -27 11 -60
l-5 -43 52 -24 c28 -13 92 -57 142 -96 49 -40 94 -75 100 -79 7 -4 29 -30 50
-59 38 -51 39 -51 61 -35 13 9 21 24 19 32 -3 9 10 27 30 43 19 15 35 25 35
22 0 -3 -12 -46 -27 -95 -25 -85 -26 -90 -9 -115 10 -15 23 -24 30 -22 7 3 50
34 95 68 64 49 84 60 91 49 7 -11 13 -11 34 4 29 18 29 17 -23 89 -33 45 -34
46 -57 29 -13 -9 -21 -24 -19 -32 3 -9 -10 -27 -30 -43 -37 -30 -40 -27 -26
19 5 16 17 55 26 86 l17 57 -28 40 c-16 22 -31 41 -34 41 -3 0 -16 -9 -30 -19
-19 -15 -22 -22 -12 -33 9 -11 -2 -23 -55 -62 -50 -36 -68 -44 -74 -34 -7 10
-11 10 -21 0 -26 -26 -30 -10 -4 17 l28 29 -27 18 c-22 14 -28 15 -35 4 -6
-10 -15 -8 -38 11 -34 27 -39 41 -19 58 11 8 18 6 32 -9 23 -26 37 -25 53 1
12 18 11 24 -8 44 -18 19 -20 27 -10 44 l11 21 35 -26 c26 -20 32 -29 22 -35
-10 -6 -8 -14 10 -31 l23 -23 30 35 c16 19 29 37 29 40 0 3 -28 27 -63 54 -34
27 -76 63 -94 79 l-32 30 -20 -24 c-14 -17 -16 -28 -9 -37 10 -11 -5 -35 -89
-142 -2 -2 -8 2 -13 10 -8 13 -12 12 -25 -5 -16 -20 -16 -20 -10 2 4 14 0 25
-9 30 -9 5 -17 19 -18 32 -2 20 3 26 28 33 44 11 70 65 54 112 -6 19 -18 40
-28 49 -17 14 -175 87 -191 87 -4 0 -13 -11 -19 -25z m108 -40 c25 -13 41 -24
37 -25 -5 0 -16 4 -26 10 -21 11 -53 -17 -70 -62 -9 -24 -7 -30 15 -47 38 -30
78 -36 103 -14 26 22 27 69 4 97 -18 20 -18 20 7 5 13 -9 27 -27 31 -40 8 -34
-9 -79 -31 -79 -10 0 -28 -12 -39 -26 -16 -21 -18 -30 -10 -52 6 -15 16 -30
22 -34 8 -5 8 -8 -3 -8 -30 0 -45 18 -42 54 3 26 -3 42 -25 65 -27 31 -29 31
-51 15 -19 -13 -23 -23 -18 -45 6 -33 -1 -36 -42 -12 l-30 17 24 18 c31 25 76
126 71 161 -5 34 12 35 73 2z m28 -55 c52 -32 33 -78 -27 -65 -39 8 -43 16
-30 54 13 37 14 37 57 11z m256 -104 c17 -13 42 -34 56 -46 14 -12 31 -25 39
-30 9 -5 11 -14 7 -26 -8 -18 -8 -18 -16 1 -12 31 -66 77 -85 73 -10 -1 -27
-15 -37 -29 -16 -22 -18 -31 -9 -48 11 -19 9 -20 -18 -15 -31 7 -51 -14 -51
-54 0 -22 46 -65 75 -70 27 -5 31 -10 17 -24 -8 -8 -15 -7 -26 3 -8 8 -44 37
-80 64 -59 45 -63 50 -41 53 15 2 39 21 62 50 21 26 41 49 44 52 14 11 29 51
24 60 -11 17 7 11 39 -14z m226 -264 c-7 -26 -18 -64 -26 -84 -12 -33 -11 -39
5 -59 21 -26 42 -18 89 35 l31 36 22 -32 23 -31 -22 5 c-16 5 -40 -7 -87 -43
-63 -47 -98 -69 -109 -69 -12 0 -6 41 15 104 24 72 20 116 -9 116 -24 0 -92
-63 -92 -86 0 -13 -7 -9 -25 16 -27 37 -33 59 -11 41 11 -10 20 -10 38 0 45
24 119 93 124 116 l6 24 20 -21 c18 -20 19 -26 8 -68z"/>
<path d="M635 2304 c-49 -41 -93 -78 -99 -84 -8 -8 49 -85 63 -85 3 0 17 8 31
17 19 14 22 20 12 30 -14 14 -16 38 -2 38 5 0 32 -28 59 -62 39 -50 46 -64 35
-73 -11 -8 -10 -14 5 -34 l19 -25 49 39 c26 21 52 42 56 46 5 4 1 19 -8 33
-15 22 -20 24 -32 14 -13 -10 -19 -8 -34 12 -11 14 -33 42 -50 63 -32 40 -31
71 2 41 18 -16 20 -16 42 2 12 10 24 20 26 21 7 4 -63 83 -73 82 -6 0 -51 -34
-101 -75z m135 0 c0 -1 -12 -1 -26 2 -30 5 -54 -11 -54 -36 0 -10 16 -37 35
-60 19 -23 35 -45 35 -50 0 -4 16 -15 35 -24 l35 -17 -29 -25 c-33 -28 -46
-31 -37 -8 6 15 -16 69 -31 76 -5 1 -20 19 -35 39 -35 47 -62 54 -82 23 -9
-13 -13 -31 -9 -41 6 -17 5 -17 -15 1 -12 11 -22 22 -22 26 0 4 26 27 57 51
32 24 69 54 82 66 l25 22 18 -21 c10 -12 18 -22 18 -24z"/>
<path d="M458 2119 c-10 -5 -46 -46 -80 -91 l-61 -81 22 -19 c26 -20 41 -23
41 -7 0 16 22 5 83 -42 42 -33 53 -46 45 -56 -8 -10 -4 -18 13 -33 13 -10 26
-19 29 -19 7 0 80 106 80 116 0 5 -10 14 -21 22 -18 10 -23 10 -30 0 -6 -10
-10 -10 -23 0 -9 7 -13 17 -10 22 7 12 81 11 89 -1 12 -19 30 -9 62 34 l32 44
-25 17 c-24 15 -27 15 -44 0 -24 -21 -56 -15 -53 10 2 26 -23 72 -46 85 -25
13 -81 13 -103 -1z m94 -31 c9 -7 22 -33 28 -56 l11 -44 45 4 c45 3 53 -2 31
-20 -8 -7 -26 -8 -49 -3 -26 6 -45 5 -64 -5 l-26 -14 16 25 c30 46 10 101 -41
110 -24 4 -83 -53 -83 -81 0 -28 57 -77 82 -71 11 3 18 0 18 -8 0 -20 49 -55
67 -48 12 5 10 -3 -7 -25 -25 -34 -40 -41 -40 -18 0 33 -136 131 -166 119 -18
-7 -18 -6 0 22 11 17 37 51 58 78 33 38 46 47 72 47 18 0 39 -6 48 -12z m-27
-47 c16 -19 16 -21 -5 -50 -25 -36 -27 -37 -59 -12 l-24 18 22 32 c26 36 41
39 66 12z"/>
<path d="M969 1970 c-33 -27 -34 -30 -33 -101 0 -41 5 -94 11 -118 11 -43 10
-45 -33 -103 -24 -33 -49 -77 -55 -97 -15 -51 2 -230 25 -266 40 -60 56 -14
56 163 1 92 6 150 15 177 19 52 10 59 -11 9 -13 -29 -18 -75 -19 -185 -1 -81
-6 -152 -10 -159 -13 -21 -34 29 -35 80 0 25 -5 62 -10 82 -15 53 1 102 61
193 28 41 53 75 55 75 3 0 2 -5 -2 -12 -4 -6 -9 -23 -10 -37 -15 -151 -16
-172 -4 -220 22 -93 54 -75 47 26 -3 35 -1 60 4 57 5 -3 9 -12 9 -19 0 -24
130 -271 205 -392 l70 -112 106 -1 c265 -1 503 45 780 151 75 29 113 49 126
68 22 29 38 70 35 88 -2 6 2 14 8 18 34 21 -16 81 -99 118 -36 16 -58 18 -115
14 -75 -7 -260 -47 -466 -102 -239 -64 -233 -64 -346 -21 -55 20 -109 45 -121
54 -26 21 -87 259 -103 403 -17 152 -20 160 -67 180 l-41 17 -33 -28z m71 -4
l32 -13 -26 -21 c-26 -20 -28 -20 -56 -4 -27 16 -28 18 -12 34 21 21 22 21 62
4z m40 -117 c-3 -4 -15 -10 -26 -13 -18 -5 -23 -1 -28 20 -6 21 -1 33 21 56
l28 30 5 -44 c3 -24 3 -46 0 -49z m-68 11 c3 -33 1 -39 -12 -34 -8 3 -23 9
-32 11 -14 4 -18 16 -18 49 l0 45 29 -15 c23 -12 30 -23 33 -56z m-29 -40 c7
0 7 -4 -2 -9 -16 -10 -41 -4 -41 11 0 6 7 7 16 4 9 -3 21 -6 27 -6z m79 -2
c-7 -7 -12 -17 -12 -22 1 -6 10 0 21 13 11 13 22 21 25 18 3 -3 -4 -15 -15
-26 -18 -18 -25 -20 -43 -10 l-21 12 24 13 c30 17 36 17 21 2z m-62 -28 c0 -5
-10 -10 -22 -10 -19 0 -20 2 -8 10 19 13 30 13 30 0z m100 -32 c0 -30 50 -253
86 -388 22 -78 72 -216 101 -275 15 -29 19 -44 10 -35 -18 17 -85 150 -118
231 -42 107 -119 344 -130 403 -10 57 -10 61 13 78 32 25 38 23 38 -14z m-115
2 c3 -5 3 -15 -1 -21 -6 -11 -23 6 -24 24 0 10 18 9 25 -3z m45 -52 c0 -18 -7
-58 -15 -88 -8 -30 -15 -89 -16 -130 -1 -56 -3 -67 -9 -45 -14 56 -11 177 7
237 19 64 33 75 33 26z m86 -284 c25 -71 53 -142 61 -157 8 -16 12 -31 10 -33
-6 -7 -132 250 -152 311 -14 41 -15 55 -5 80 l12 30 13 -51 c8 -28 35 -109 61
-180z m1108 28 c3 -5 -1 -9 -9 -9 -8 0 -15 4 -15 9 0 4 4 8 9 8 6 0 12 -4 15
-8z m-46 -29 c-10 -2 -26 -2 -35 0 -10 3 -2 5 17 5 19 0 27 -2 18 -5z m52 -3
c0 -5 -5 -10 -11 -10 -5 0 -7 5 -4 10 3 6 8 10 11 10 2 0 4 -4 4 -10z m-160
-10 c-15 -5 5 -6 50 -3 69 5 79 3 130 -25 30 -16 62 -27 70 -24 29 10 -13 -23
-45 -35 -78 -30 -145 -43 -164 -33 -34 18 -123 11 -216 -17 -102 -30 -197 -34
-305 -10 l-65 14 60 12 c33 7 101 23 150 36 50 13 135 33 190 45 58 12 103 27
108 36 4 8 20 14 35 13 l27 -1 -25 -8z m-60 -10 c-8 -5 -24 -9 -35 -9 -20 0
-20 0 0 9 11 5 27 9 35 9 13 1 13 0 0 -9z m270 -11 l25 -20 -32 16 c-18 8 -33
18 -33 20 0 10 16 4 40 -16z m-343 -5 c-3 -3 -12 -4 -19 -1 -8 3 -5 6 6 6 11
1 17 -2 13 -5z m-597 -64 c36 -11 79 -27 95 -35 17 -8 73 -23 125 -33 114 -24
101 -25 -106 -11 -210 13 -220 17 -239 82 -8 28 -15 52 -15 53 0 1 17 -6 38
-16 20 -10 67 -28 102 -40z m547 54 c-3 -3 -12 -4 -19 -1 -8 3 -5 6 6 6 11 1
17 -2 13 -5z m-102 -24 c-38 -11 -71 -17 -73 -15 -2 2 16 9 39 15 24 6 49 13
54 15 6 2 19 3 30 3 11 0 -11 -8 -50 -18z m-90 -20 c-3 -5 -14 -10 -23 -9 -14
0 -13 2 3 9 27 11 27 11 20 0z m-48 -16 c-3 -3 -12 -4 -19 -1 -8 3 -5 6 6 6
11 1 17 -2 13 -5z m693 -8 c0 -8 -4 -18 -10 -21 -5 -3 -10 3 -10 14 0 12 5 21
10 21 6 0 10 -6 10 -14z m-840 -11 c0 -9 -6 -12 -16 -8 -13 5 -13 7 -2 14 17
11 18 11 18 -6z m93 8 c-7 -2 -19 -2 -25 0 -7 3 -2 5 12 5 14 0 19 -2 13 -5z
m712 -20 c-3 -41 -4 -43 -18 -43 -7 0 -73 -18 -147 -41 -244 -73 -370 -92
-716 -102 l-121 -4 -32 75 c-17 41 -30 77 -28 78 2 2 21 -2 43 -8 26 -9 142
-12 359 -13 346 0 434 9 582 60 85 30 80 30 78 -2z m-275 -12 c-8 -5 -33 -11
-55 -14 l-40 -5 30 13 c33 16 91 21 65 6z m244 -59 c-11 -10 -147 -60 -274
-100 -141 -46 -439 -91 -607 -92 -48 0 -54 2 -68 30 l-16 30 118 0 c158 0 429
26 528 50 44 11 134 37 200 58 113 37 141 42 119 24z"/>
<path d="M2215 1268 c-185 -74 -612 -125 -843 -101 -46 5 -85 6 -88 2 -23 -37
490 -22 715 21 105 20 337 100 286 99 -11 -1 -42 -10 -70 -21z"/>
<path d="M276 1820 c-45 -40 -70 -106 -63 -162 4 -34 14 -51 47 -80 95 -85
214 -42 249 89 27 100 -43 183 -153 183 -36 0 -52 -6 -80 -30z m165 -22 c37
-23 48 -50 42 -108 -9 -88 -78 -141 -153 -119 -56 17 -82 49 -85 103 -2 26 0
46 5 46 4 0 7 -13 8 -29 3 -101 140 -141 192 -57 28 47 26 85 -9 126 -26 32
-34 35 -81 35 -47 0 -55 -3 -81 -35 -16 -19 -29 -32 -29 -28 0 17 32 64 52 75
32 17 103 13 139 -9z m-29 -48 c33 -25 39 -51 21 -88 -29 -59 -102 -63 -139
-8 -18 29 -13 69 13 99 21 23 74 22 105 -3z"/>
<path d="M2597 1826 c-98 -36 -129 -121 -80 -221 8 -16 27 -40 41 -52 21 -18
23 -23 10 -23 -19 0 -19 8 6 -175 l11 -80 30 4 c17 2 38 4 48 5 9 0 17 4 17 9
0 4 0 18 0 32 0 19 -5 25 -17 23 -14 -2 -19 6 -23 40 -6 39 -5 42 16 42 18 0
24 -7 29 -33 6 -30 9 -33 36 -29 27 4 29 7 27 41 -3 30 0 36 18 39 17 2 23 -4
32 -37 9 -37 8 -41 -9 -41 -16 0 -18 -5 -13 -27 9 -37 7 -36 59 -29 37 6 45
11 41 24 -5 17 -25 148 -30 197 -4 34 -10 39 -41 31 -18 -5 -25 -12 -21 -21 6
-16 2 -17 -101 -32 -48 -7 -63 -6 -63 3 0 7 -5 14 -11 16 -7 2 -7 11 1 29 11
23 9 29 -14 52 -19 20 -26 36 -26 67 0 35 4 43 33 60 44 27 63 25 98 -9 34
-35 37 -57 8 -64 -18 -5 -20 -11 -15 -34 11 -41 18 -44 59 -26 51 24 59 64 24
136 -39 78 -106 109 -180 83z m135 -59 c34 -50 43 -101 21 -123 -21 -21 -39
-17 -20 4 46 51 -6 135 -83 135 -33 0 -48 -7 -76 -34 -40 -39 -45 -85 -14
-136 11 -18 15 -33 10 -33 -14 0 -40 54 -44 92 -5 38 13 86 38 107 40 33 143
26 168 -12z m89 -254 c0 -10 2 -33 4 -51 l4 -33 -20 26 c-11 14 -28 25 -36 25
-21 0 -53 -29 -53 -48 0 -12 -5 -10 -23 6 -28 26 -44 28 -69 5 -22 -20 -24
-72 -3 -99 18 -24 19 -34 1 -34 -17 0 -23 25 -32 120 -7 71 -7 72 14 61 31
-16 173 0 186 22 14 22 26 22 27 0z m14 -162 c-3 -6 -11 -11 -17 -11 -6 0 -6
6 2 15 14 17 26 13 15 -4z"/>
<path d="M189 1516 c-14 -9 -31 -28 -37 -43 -9 -23 -34 -206 -29 -209 1 -1 15
-4 30 -8 24 -6 30 -3 34 14 4 14 11 19 27 15 11 -2 47 -7 79 -10 47 -5 57 -10
57 -26 0 -10 6 -19 14 -19 8 0 21 -3 29 -6 16 -6 21 9 32 104 l7 52 -31 0
c-21 0 -31 -5 -31 -15 0 -8 -8 -15 -17 -15 -15 0 -18 10 -18 65 0 52 -4 68
-21 85 -27 27 -91 35 -125 16z m94 -30 c10 -8 20 -31 22 -52 2 -22 2 -30 -2
-19 -3 11 -16 32 -28 47 -21 25 -24 26 -46 11 -13 -9 -30 -23 -36 -31 -18 -22
-16 -72 4 -94 20 -22 72 -24 88 -1 11 15 14 14 33 -5 24 -24 47 -28 57 -12 12
19 25 -1 19 -28 -4 -15 -8 -28 -9 -29 -1 -2 -18 6 -37 16 -44 22 -153 28 -176
9 -14 -12 -15 -4 -8 70 7 85 19 118 46 126 30 8 55 5 73 -8z m-15 -52 c4 -8 6
-29 4 -45 -4 -27 -8 -30 -36 -27 -28 3 -31 6 -28 33 6 51 41 74 60 39z"/>
<path d="M1050 818 c0 -10 4 -18 8 -18 14 0 9 -94 -5 -108 -22 -22 -8 -27 66
-24 68 3 71 5 71 28 0 23 -18 32 -34 17 -14 -14 -46 -13 -46 2 0 9 9 15 21 15
14 0 19 5 17 18 -2 10 -11 16 -21 14 -11 -2 -17 4 -17 18 0 13 7 20 20 20 11
0 20 -4 20 -10 0 -5 9 -10 20 -10 14 0 20 7 20 24 0 23 -4 25 -70 28 -61 3
-70 1 -70 -14z"/>
<path d="M120 815 c0 -8 5 -15 10 -15 14 0 13 -97 -2 -102 -6 -2 -9 -11 -6
-19 4 -11 22 -13 77 -11 l71 4 0 29 c0 22 -5 29 -20 29 -11 0 -20 -7 -20 -15
0 -8 -9 -15 -20 -15 -17 0 -20 7 -20 50 0 28 5 50 10 50 6 0 10 7 10 15 0 11
-12 15 -45 15 -33 0 -45 -4 -45 -15z"/>
<path d="M440 816 c0 -8 5 -16 11 -18 15 -5 -25 -98 -41 -98 -6 0 -10 -8 -8
-17 2 -12 14 -16 42 -16 39 0 58 14 37 28 -22 13 -10 25 24 25 19 0 35 -4 35
-10 0 -5 -5 -10 -11 -10 -6 0 -9 -7 -7 -16 4 -24 78 -26 78 -2 0 9 -4 18 -9
20 -5 2 -20 30 -34 63 -25 60 -25 60 -71 63 -35 2 -46 0 -46 -12z m78 -54 c2
-7 -3 -12 -12 -12 -9 0 -16 7 -16 16 0 17 22 14 28 -4z"/>
<path d="M730 809 c0 -11 5 -17 10 -14 6 4 10 -13 10 -44 0 -30 -5 -51 -11
-51 -6 0 -9 -7 -7 -16 4 -24 78 -26 78 -2 0 9 -6 18 -12 21 -10 4 -10 7 -1 17
15 17 43 -3 43 -30 0 -13 10 -19 36 -22 19 -2 37 -1 39 2 2 4 -11 24 -30 45
-19 21 -35 41 -35 45 0 5 14 14 30 22 17 7 30 21 30 30 0 14 -9 18 -41 18 -36
0 -41 -3 -36 -19 3 -11 -4 -26 -15 -36 -24 -20 -37 -11 -20 15 20 32 14 40
-28 40 -34 0 -40 -3 -40 -21z"/>
<path d="M1530 800 c0 -23 4 -30 20 -30 11 0 20 7 20 16 0 8 5 12 10 9 12 -7
1 -87 -13 -96 -21 -14 1 -32 41 -33 34 -1 42 2 42 17 0 9 -4 17 -10 17 -5 0
-10 24 -10 53 1 45 2 50 14 35 21 -28 41 -22 41 12 l0 30 -77 0 -78 0 0 -30z"/>
<path d="M1847 818 c-41 -32 -39 -115 3 -138 32 -17 94 -12 118 10 29 27 30
92 2 120 -23 23 -96 28 -123 8z m85 -35 c32 -29 16 -73 -27 -73 -42 0 -59 44
-29 74 20 20 33 20 56 -1z"/>
<path d="M2110 815 c0 -8 4 -15 9 -15 5 0 11 -23 13 -52 6 -60 24 -78 78 -78
50 0 70 24 70 83 0 33 4 47 13 47 8 0 14 7 14 15 0 11 -12 15 -44 15 -32 0
-43 -4 -43 -15 0 -8 5 -15 11 -15 6 0 9 -17 7 -42 -3 -38 -6 -43 -28 -43 -22
0 -25 5 -28 43 -2 25 1 42 7 42 6 0 11 7 11 15 0 11 -12 15 -45 15 -33 0 -45
-4 -45 -15z"/>
<path d="M2430 815 c0 -8 6 -15 14 -15 18 0 14 -89 -4 -100 -27 -17 -3 -36 39
-32 40 4 57 25 29 35 -7 2 -10 8 -6 12 9 10 38 -13 38 -30 0 -7 14 -15 30 -17
26 -4 30 -1 30 19 0 13 -4 22 -9 19 -5 -3 -14 1 -21 9 -9 11 -9 15 -1 15 6 0
16 11 23 25 9 19 8 29 -6 50 -15 23 -23 25 -86 25 -56 0 -70 -3 -70 -15z m115
-40 c0 -13 -8 -21 -22 -23 -19 -3 -23 1 -23 23 0 22 4 26 23 23 14 -2 22 -10
22 -23z"/>
<path d="M2746 815 c-35 -35 -14 -72 48 -82 36 -6 47 -18 24 -26 -18 -5 -48 3
-48 14 0 5 -9 9 -20 9 -23 0 -27 -29 -8 -48 15 -15 82 -16 109 -2 22 12 25 52
6 69 -8 6 -28 14 -45 17 -18 4 -32 11 -32 16 0 14 33 23 38 10 2 -7 13 -12 24
-12 14 0 19 6 16 23 -3 19 -10 22 -49 25 -33 2 -51 -2 -63 -13z"/>
</g>
</svg>
