<svg xmlns="http://www.w3.org/2000/svg" enable-background="new 0 0 50 50" viewBox="0 0 50 50"><path d="M8.8 32.4c0 0 .9.5 2.9.9.3.1.6.1.9.1l21 1.6c.4 0 .7-.1 1-.3.2-.2.6-.3.9-.3l10.8.1c.1 0 .3-.1.4-.2l.2-.2c0 0 .1 0 .1 0 .3 0 .7-.2.9-.4v0c0-.1.1-.1.2-.1.1 0 .2-.1.2-.2l.1-.6c-7.2-.1-34-1.1-43.3-3.3C6.5 30.8 7.8 32 8.8 32.4zM48.7 28.1c0-.2-.2-.3-.4-.4-.1 0-.3-.1-.3-.3l-1.1-2c-.1-.2-.3-.3-.6-.4-12.8-1-11.3-.9-12.1-.9-.2-2.3-1-5-1.4-6.2-.1-.3.1-.6.4-.7l4.7-.6c.1 0 .1 0 .2 0l.6-.4c.1-.1.2-.2.2-.4 0-.1 0-.1-.1-.2-.1-.1-.2-.2-.3-.2-11.8-1.3-17.1.1-18.6.6-.3.1-.6.4-.7.7-.1.2-.2.4-.4.6-1.3.9-6.2 4.5-8.5 6.2l-8.9-.2c-.3 0-.5.4-.3.6C1.7 25 2.7 26.5 4 27.9c6.7 2.3 36.7 3.5 44.6 3.6l.2-2.5c0-.1 0-.1.1-.2.1 0 .1-.1.1-.2C49 28.7 48.9 28.5 48.7 28.1zM30.5 22.9c-10.6-.9-7.6-.6-14.2-1.2-.1 0-.2-.2-.1-.3l5.1-4.2c.2-.1.4-.2.6-.2h7.7c.2 0 .4.2.5.4l.9 4.9C31.1 22.6 30.8 22.9 30.5 22.9z"/></svg>