<svg xmlns="http://www.w3.org/2000/svg" enable-background="new 0 0 66 66" viewBox="0 0 66 66"><path d="M64 13.9h-7.2c-.4-1.7-2-2.9-3.8-2.9s-3.3 1.2-3.8 2.9H24.4c-.4-1.7-2-2.9-3.8-2.9s-3.3 1.2-3.8 2.9H2c-.6 0-1 .4-1 1s.4 1 1 1h14.9c.4 1.7 2 2.9 3.8 2.9s3.3-1.2 3.8-2.9h24.8c.4 1.7 2 2.9 3.8 2.9s3.3-1.2 3.8-2.9H64c.6 0 1-.4 1-1S64.6 13.9 64 13.9zM20.7 16.8c-1.1 0-1.9-.9-1.9-1.9s.9-1.9 1.9-1.9 1.9.9 1.9 1.9S21.7 16.8 20.7 16.8zM53 16.8c-1.1 0-1.9-.9-1.9-1.9S52 13 53 13s1.9.9 1.9 1.9S54.1 16.8 53 16.8zM3.1 32.3c-.3-.2-.8-.2-1.1 0-.3.2-.5.6-.4 1 1.1 7.4 3.8 11.6 6.1 13.9-.3-1.5-.4-3.1-.4-4.8 0-2.9.4-5.7 1.1-8.5C6.1 34.1 4.7 33.3 3.1 32.3zM35.4 32.3c-.3-.2-.8-.2-1.1 0-.3.2-.5.6-.4 1 1.1 7.4 3.8 11.6 6.1 13.9-.3-1.5-.4-3.1-.4-4.8 0-2.9.4-5.7 1.1-8.5C38.5 34.1 37 33.3 35.4 32.3zM17 10.2c2.1-1.7 5.2-1.7 7.3 0l4.2-7.7c.2-.4.1-.9-.2-1.2-.4-.3-.9-.3-1.3 0l-6.4 4.6-6.4-4.6c-.4-.3-.9-.3-1.3 0-.3.3-.4.8-.2 1.2L17 10.2zM49.4 10.2c2.1-1.7 5.2-1.7 7.3 0l4.2-7.7c.2-.4.1-.9-.2-1.2-.3-.3-.9-.3-1.3 0L53 5.8l-6.4-4.6c-.4-.3-.9-.3-1.3 0S45 2.1 45.2 2.5L49.4 10.2zM20.7 20.8c-1.5 0-2.9-.6-4-1.5-3 5.2-7.5 14.3-7.5 23.2 0 13.9 10.4 22 10.8 22.3.2.1.4.2.6.2.2 0 .4-.1.6-.2C32.6 56 37 40.2 24.7 19.2 23.6 20.2 22.2 20.8 20.7 20.8zM22.1 55.8c-.8.8-2 .8-2.8 0-.8-.8-.8-2 0-2.8.8-.7 2.1-.7 2.8 0C22.9 53.7 22.9 55 22.1 55.8zM53 20.8c-1.5 0-2.9-.6-4-1.6-3 5.2-7.5 14.3-7.5 23.2 0 13.9 10.4 22 10.8 22.3.2.1.4.2.6.2.2 0 .4-.1.6-.2.4-.3 10.8-8.4 10.8-22.3 0-8.8-4.1-17.6-7.4-23.2C56 20.2 54.6 20.8 53 20.8zM54.4 55.8c-.8.8-2 .8-2.8 0-.8-.8-.8-2 0-2.8.8-.7 2.1-.7 2.8 0C55.2 53.7 55.2 55 54.4 55.8z"/></svg>