<svg xmlns="http://www.w3.org/2000/svg" xmlns:xlink="http://www.w3.org/1999/xlink" width="169.492" height="136.821" viewBox="0 0 169.492 136.821"><path fill="#77B52D" d="M37.863 114.159s-9.564-4.555-4.268-9.965c5.298-5.41 9.934-3.369 9.934-3.369s-1.243-6.288 9.884-8.544c11.127-2.256 14.48 4.424 14.48 4.424s3.009-7.789 9.921-7.261c6.913.525 6.042 6.774 6.042 6.774s8.984-7.686 13.293-5.688c4.308 1.997 6.705 4.165 6.705 4.165s-.027-10.176 8.503-9.718c8.53.459 7.109 8.941 7.109 8.941s7.674-9.852 13.425-6.939c6.26 3.169 5.094 12.581 5.094 12.581s4.992-4.222 6.606.724c2.72 8.33-1.555 9.475-1.555 9.475s3.886 3.623-.777 8.211c-4.664 4.588-13.882 2.503-13.882 2.503s-9.269 10.01-14.986 6.256c0 0-5.029 6.674-12.174 7.508-7.144.835-9.161-5.839-9.161-5.839s-6.91 9.321-15.27 5.912-8.894-8.415-8.894-8.415-4.542 5.423-8.805 3.754c-4.262-1.668-4.054-6.634-4.054-6.634s-20.344 4.851-17.17-8.856"/><path fill="#565451" d="M67.637 90.288s.923 2.749 2.459 3.08c0 0-2.049 11.108-2.459 12.539-.409 1.43 7.071 3.629 10.35 1.099 3.279-2.529 4.669-12.099 4.669-12.099s-12.047-9.788-15.019-4.619"/><path fill="#8D8C8C" d="M68.134 103.641c-1.509-.903-2.207 2.466-.907 2.905 1.3.438 2.635-1.872.907-2.905M71.224 105.043c-1.362-.369-2.972 2.187-1.435 3.119 1.538.934 2.797-2.748 1.435-3.119"/><path fill="#8D8C8C" d="M74.093 105.459c-1.57-.838-2.767 2.183-1.332 2.855 1.435.672 3.382-1.761 1.332-2.855"/><path fill="#565451" d="M108.013 94.797s-.513 8.029 0 9.019c.511.991 9.222 2.2 10.658 0 1.434-2.199 1.741-15.618 1.741-15.618s-11.477 2.199-12.399 6.599"/><path fill="#8D8C8C" d="M108.218 101.176c-1.716-.319-1.894 4.203 0 3.832 1.893-.373 2.357-3.392 0-3.832"/><path fill="#8D8C8C" d="M112.112 101.161c-2.152.016-2.152 3.781 0 4.152 2.152.373 2.152-4.17 0-4.152"/><path fill="#8D8C8C" d="M116.006 101.161c-1.737-.144-2.255 3.892 0 4.152 2.254.264 2.459-3.949 0-4.152"/><path fill="#726F69" d="M88.747 96.542s.923 8.813 1.229 10.683c.308 1.871 1.025 2.311 3.382 2.53 2.357.22 6.764 1.43 7.788 0 1.025-1.43 1.966-11.979 1.966-11.979s-.326-5.325-3.4-6.517c-3.074-1.191-10.965-.671-10.965 5.283"/><defs><path id="a" d="M88.748 96.542s.922 8.813 1.229 10.684c.308 1.87 1.024 2.31 3.381 2.529 2.357.22 6.763 1.431 7.789 0 1.024-1.43 1.966-11.979 1.966-11.979s-.327-5.325-3.4-6.517c-.828-.321-2.005-.519-3.283-.519-3.469.001-7.682 1.45-7.682 5.802"/></defs><clipPath id="b"><use overflow="visible" xlink:href="#a"/></clipPath><path fill="#605E5A" d="M96.245 91.517s5.336 15.655-5.313 16.646c-10.648.991 3.325 4.658 3.325 4.658s11.408-.543 11.223-4.392c-.186-3.848 3.284-21.766-9.235-16.912" clip-path="url(#b)"/><path fill="#8D8C8C" d="M91.016 105.563c-1.021-.779-1.96 3.093-.834 3.862 1.127.771 3.409-1.896.834-3.862M94.998 106.566c-1.726-.337-2.767 3.63-.82 4.62 1.947.989 3.075-4.181.82-4.62M99.609 107.51c-2.357-.504-2.664 3.377-1.127 3.802 1.538.424 3.485-3.297 1.127-3.802"/><path fill="#726F69" d="M122.974 92.158s.717 9.789 1.127 11.878c.41 2.09 11.375 1.98 12.604 0 1.229-1.979 1.947-21.338 1.947-21.338s-13.731 1.65-15.678 9.46"/><defs><path id="c" d="M122.974 92.158s.717 9.789 1.127 11.878c.41 2.091 11.375 1.98 12.604 0 1.229-1.979 1.948-21.337 1.948-21.337s-13.732 1.649-15.679 9.459"/></defs><clipPath id="d"><use overflow="visible" xlink:href="#c"/></clipPath><path fill="#605E5A" d="M130.524 85.888s1.814 1.591 2.095 6.762c.281 5.17-2.2 12.752-8.074 11.96-5.875-.794 2.516 2.957 6.269 2.855 3.753-.102 10.451 4.635 9.141-4.667-1.311-9.301 3.941-29.04-9.431-16.91" clip-path="url(#d)"/><path fill="#8D8C8C" d="M123.682 100.592c-1.744-.138-1.753 4.402 0 4.416 1.753.013 2.347-4.23 0-4.416"/><path fill="#8D8C8C" d="M127.893 101.157c-2.255.13-3.075 4.529-.615 4.859 2.46.33 2.869-4.989.615-4.859"/><path fill="#8D8C8C" d="M132.401 101.161c-2.225.406-2.766 4.555 0 4.87 2.768.315 3.381-5.489 0-4.87"/><path fill="#CDB690" d="M44.067 64.991s4.699 1.067 4.874 4.618c.175 3.553-4.874 5.94-4.874 5.94s8.813 4.84 11.887 1.1 5.534-13.859 3.895-14.738c-1.639-.88-13.731-3.785-15.782 3.08"/><path fill="#E8CDA0" d="M40.957 74.188s-.373-2.07 1.062-2.335c1.435-.264 2.049 3.696 2.049 3.696l-3.111-1.361zM48.987 75.713s-.41-3.596 1.229-3.86c1.64-.264 2.46 3.696 2.46 3.696l-3.689.164z"/><path fill="#F7CB92" d="M13.194 49.717s-2.181 5.373 0 7.354c2.181 1.98 6.485-2.64 6.485-2.64l-6.485-4.714zM28.697 67.993s-2.87 6.236 0 7.557c2.87 1.319 7.173-5.719 7.173-5.719l-7.173-1.838z"/><path fill="#726F69" d="M132.619 41.012s1.56-2.713 4.155-.807c0 0 5.602-3.96 3.417-9.093 0 0 7.57 5.426.505 16.426 0 0 1.749 3.509-2.043 5.2 0 .001-.215-8.28-6.034-11.726"/><path fill="#8D8C8C" d="M46.938 37.868s-1.64-1.32-2.459-2.64c-.819-1.32-1.23-4.18-3.484-2.639-2.254 1.54-3.14 5.501 0 6.16 3.139.658 5.739 2.717 5.944 1.469.203-1.25-.001-2.35-.001-2.35"/><path fill="#726F69" d="M136.911 42.992c-2.869-5.059-11.887-10.999-32.382-12.539-12.021-.902-18.749 1.145-22.262 2.994-6.402-3.608-12.438 1.767-12.438 1.767s-8.43-7.18-13.348-1.021c0 0-7.494-3.74-10.978.66-2.74 3.46-1.64 6.819-1.64 6.819s-4.099 3.74-7.174 0c-3.075-3.739-6.151-3.843-6.151-3.843s1.847-7.376-4.916-7.376-4.714 6.441-4.714 6.441-6.968-.257-7.994 6.44c-1.024 6.697 1.23 8.677 4.099 10.877 2.869 2.199 6.757 14.078 13.524 16.058 6.766 1.98 12.915 1.54 16.399-3.299 3.483-4.84 11.067-3.271 11.067-3.271s-.82 12.07-8.403 10.971c-7.583-1.101-12.912-.66-12.707 1.98.204 2.639 1.024 7.258 19.266 7.698 0 0 4.824 9.269 14.345 6.32 6.08 5.793 15.373 5.874 15.373 5.874-.41 2.734 2.87 0 2.87 0s.615-2.295 5.738-3.615 5.534 3.52 7.993 4.619 1.845-1.004 1.845-1.004c8.198.534 15.577-5.283 15.577-5.283s2.049 4.527 4.508 0c2.46-4.528 10.658-4.491 13.527-6.031 2.868-1.54.615-4.62.615-4.62 8.404-13.858 1.23-32.557-1.639-37.616"/><defs><path id="e" d="M82.267 33.446c-6.402-3.607-12.438 1.769-12.438 1.769s-8.43-7.181-13.349-1.021c0 0-7.493-3.74-10.978.66-2.739 3.459-1.639 6.819-1.639 6.819s-4.1 3.74-7.173 0c-3.075-3.739-6.151-3.843-6.151-3.843s1.847-7.376-4.916-7.376-4.714 6.441-4.714 6.441-6.968-.257-7.993 6.44c-1.024 6.698 1.229 8.677 4.1 10.877 2.868 2.199 6.756 14.078 13.523 16.058 6.766 1.98 12.915 1.54 16.399-3.299 3.483-4.839 11.067-3.271 11.067-3.271s-.82 12.07-8.403 10.97c-7.583-1.1-12.912-.66-12.707 1.98.205 2.639 1.024 7.259 19.265 7.699 0 0 4.825 9.269 14.346 6.319 6.08 5.793 15.373 5.875 15.373 5.875-.41 2.734 2.87 0 2.87 0s.615-2.295 5.738-3.615 5.534 3.52 7.993 4.619c2.46 1.101 1.845-1.004 1.845-1.004 8.198.535 15.577-5.283 15.577-5.283s2.049 4.527 4.508 0c2.46-4.528 10.658-4.491 13.526-6.031 2.869-1.54.615-4.62.615-4.62 8.402-13.858 1.23-32.556-1.64-37.616-2.869-5.059-11.887-10.999-32.383-12.539a75.53 75.53 0 0 0-5.623-.22c-8.569-.001-13.716 1.675-16.638 3.212"/></defs><clipPath id="f"><use overflow="visible" xlink:href="#e"/></clipPath><path fill="#605E5A" d="M37.117 78.067s22.963 7.405 32.046-7.399c0 0 8.525 4.083 12.974-4.466 0 0 47.182 18.295 60.366-6.76 0 0 .903 7.921 1.208 12.411.304 4.49 2.893 18.125-11.093 26.619-13.983 8.494-72.038 4.119-83.676-5.624-11.639-9.743-13.679-10.076-11.825-14.781" clip-path="url(#f)"/><path fill="#8D8C8C" d="M72.351 38.476s2.682.872 4.32-1.328c1.64-2.199 5.139-3.286 6.337-.153 1.537 4.018-1.701 9.024-10.056 4.932.001-.001.834-1.588-.601-3.451"/><path fill="#42413E" d="M22.548 37.052s3.279-.581 6.149 1.03c0 0-2.256-3.009-6.149-1.03M30.538 55.333s-2.092-4.367 1.108-4.713c3.199-.347 6.479 1.633 4.224 4.713s-5.332 0-5.332 0"/><path fill="#42413E" d="M29.866 48.271s2.93-2.42 6.003-1.319c3.075 1.1 3.088 6.689 3.088 6.689s2.093-6.909-2.342-8.229c-4.434-1.32-6.749 2.859-6.749 2.859"/><path fill="#191919" d="M58.21 43.083c0 1.144-.597 2.072-1.333 2.072-.735 0-1.332-.928-1.332-2.072s.597-2.071 1.332-2.071c.736 0 1.333.927 1.333 2.071M50.273 43.083c0 1.144-.596 2.072-1.332 2.072-.735 0-1.332-.928-1.332-2.072s.597-2.071 1.332-2.071c.736 0 1.332.927 1.332 2.071"/><path fill="#42413E" d="M79.934 54.431s5.329 12.318-5.328 21.118c0 0 13.732-8.139 5.328-21.118M137.321 41.012s2.049 2.713 2.596 5.499c0 0 .551-4.165-2.596-5.499M84.545 36.378s3.579 5.804 5.125 13.44c0 0-.121-9.47-5.125-13.44M87.51 93.247s9.541-7.259 15.191 0c0 0-5.743-9.247-15.191 0M121.598 88.198s7.454-9.865 15.723-7.578c0 0-9.424-4.33-15.723 7.578"/></svg>