<svg xmlns="http://www.w3.org/2000/svg" fill-rule="evenodd" stroke-linejoin="round" stroke-miterlimit="2" clip-rule="evenodd" viewBox="0 0 12 12"><path d="M9.12 1.44c-.53 0-.96.43-.96.96 0 .53.43.96.96.96.53 0 .96-.43.96-.96 0-.53-.43-.96-.96-.96zm0 .48c.265 0 .48.215.48.48 0 .265-.215.48-.48.48-.265 0-.48-.215-.48-.48 0-.265.215-.48.48-.48zM.72 11.04l5.52 0c.132 0 .24-.108.24-.24 0-.132-.108-.24-.24-.24l-5.52 0c-.132 0-.24.108-.24.24 0 .132.108.24.24.24zM2.157 9.639c0 0 .458-2.774 2.536-4.159.11-.074.14-.223.067-.333-.074-.11-.223-.14-.333-.067-2.242 1.495-2.744 4.481-2.744 4.481-.022.13.067.254.198.276.13.022.254-.067.276-.198zM4.559 9.58c0 0-.084-1.003.1-1.956.113-.586.316-1.161.744-1.418.114-.068.151-.216.083-.329-.068-.114-.216-.151-.329-.083-.532.319-.829 1.011-.969 1.739-.196 1.017-.107 2.087-.107 2.087.011.132.127.23.259.219.132-.011.23-.127.219-.259z"/><path d="M5.268,5.52l0.012,-0l0.001,-0l0,-0l0.015,-0c0,-0 0.674,-0.048 1.079,0.383c0.28,0.299 0.407,0.818 0.153,1.711c-0.036,0.128 0.038,0.261 0.166,0.297c0.127,0.036 0.26,-0.038 0.296,-0.165c0.323,-1.138 0.092,-1.792 -0.265,-2.171c-0.371,-0.395 -0.905,-0.5 -1.213,-0.527c-0.028,-0.305 -0.135,-0.827 -0.529,-1.189c-0.379,-0.348 -1.033,-0.572 -2.169,-0.25c-0.127,0.036 -0.201,0.169 -0.165,0.297c0.036,0.127 0.169,0.201 0.297,0.165c0.894,-0.254 1.414,-0.132 1.713,0.142c0.429,0.393 0.381,1.052 0.381,1.052c-0.004,0.066 0.02,0.131 0.065,0.179c0.043,0.046 0.101,0.072 0.163,0.076Z"/><path d="M8.879 6.216c-.081-.806-.39-1.293-.768-1.587-.583-.452-1.356-.435-1.807-.373.062-.451.079-1.224-.373-1.807-.294-.378-.781-.687-1.587-.768-.132-.013-.25.083-.263.215-.013.132.083.25.215.263.634.063 1.025.287 1.256.584.543.701.218 1.748.218 1.748-.025.085-.002.176.06.239.063.062.154.085.239.06 0 0 1.047-.325 1.748.218.297.231.521.622.584 1.256.013.132.131.228.263.215.132-.013.228-.131.215-.263zM6.96 8.64c.268 0 .43-.104.57-.233.046-.042.088-.087.133-.13.064-.06.133-.117.257-.117.124 0 .193.057.257.117.045.043.087.088.133.13.14.129.302.233.57.233.268 0 .43-.104.57-.233.046-.042.088-.087.133-.13.064-.06.133-.117.257-.117.124 0 .193.057.257.117.045.043.087.088.133.13.14.129.302.233.57.233.132 0 .24-.108.24-.24 0-.132-.108-.24-.24-.24-.124 0-.193-.057-.257-.117-.045-.043-.087-.088-.133-.13-.14-.129-.302-.233-.57-.233-.268 0-.43.104-.57.233-.046.042-.088.087-.133.13-.064.06-.133.117-.257.117-.124 0-.193-.057-.257-.117-.045-.043-.087-.088-.133-.13-.14-.129-.302-.233-.57-.233-.268 0-.43.104-.57.233-.046.042-.088.087-.133.13-.064.06-.133.117-.257.117-.132 0-.24.108-.24.24 0 .132.108.24.24.24zM6.96 11.04c.268 0 .43-.104.57-.233.046-.042.088-.087.133-.13.064-.06.133-.117.257-.117.124 0 .193.057.257.117.045.043.087.088.133.13.14.129.302.233.57.233.268 0 .43-.104.57-.233.046-.042.088-.087.133-.13.064-.06.133-.117.257-.117.124 0 .193.057.257.117.045.043.087.088.133.13.14.129.302.233.57.233.132 0 .24-.108.24-.24 0-.132-.108-.24-.24-.24-.124 0-.193-.057-.257-.117-.045-.043-.087-.088-.133-.13-.14-.129-.302-.233-.57-.233-.268 0-.43.104-.57.233-.046.042-.088.087-.133.13-.064.06-.133.117-.257.117-.124 0-.193-.057-.257-.117-.045-.043-.087-.088-.133-.13-.14-.129-.302-.233-.57-.233-.268 0-.43.104-.57.233-.046.042-.088.087-.133.13-.064.06-.133.117-.257.117-.132 0-.24.108-.24.24 0 .132.108.24.24.24zM6.96 9.84c.268 0 .43-.104.57-.233.046-.042.088-.087.133-.13.064-.06.133-.117.257-.117.124 0 .193.057.257.117.045.043.087.088.133.13.14.129.302.233.57.233.268 0 .43-.104.57-.233.046-.042.088-.087.133-.13.064-.06.133-.117.257-.117.124 0 .193.057.257.117.045.043.087.088.133.13.14.129.302.233.57.233.132 0 .24-.108.24-.24 0-.132-.108-.24-.24-.24-.124 0-.193-.057-.257-.117-.045-.043-.087-.088-.133-.13-.14-.129-.302-.233-.57-.233-.268 0-.43.104-.57.233-.046.042-.088.087-.133.13-.064.06-.133.117-.257.117-.124 0-.193-.057-.257-.117-.045-.043-.087-.088-.133-.13-.14-.129-.302-.233-.57-.233-.268 0-.43.104-.57.233-.046.042-.088.087-.133.13-.064.06-.133.117-.257.117-.132 0-.24.108-.24.24 0 .132.108.24.24.24zM9.36.96l0-.24c0-.132-.108-.24-.24-.24-.132 0-.24.108-.24.24l0 .24c0 .132.108.24.24.24.132 0 .24-.108.24-.24zM10.56 2.64l.24 0c.132 0 .24-.108.24-.24 0-.132-.108-.24-.24-.24l-.24 0c-.132 0-.24.108-.24.24 0 .132.108.24.24.24zM10.308 1.551l.17-.169c.093-.094.093-.246 0-.34-.094-.093-.246-.093-.34 0l-.169.17c-.094.094-.094.246 0 .339.093.094.245.094.339 0zM8.271 1.212l-.169-.17c-.094-.093-.246-.093-.34 0-.093.094-.093.246 0 .34l.17.169c.094.094.246.094.339 0 .094-.093.094-.245 0-.339zM9.36 4.08l0-.24c0-.132-.108-.24-.24-.24-.132 0-.24.108-.24.24l0 .24c0 .132.108.24.24.24.132 0 .24-.108.24-.24zM7.44 2.64l.24 0c.132 0 .24-.108.24-.24 0-.132-.108-.24-.24-.24l-.24 0c-.132 0-.24.108-.24.24 0 .132.108.24.24.24zM8.102 3.758l.169-.17c.094-.094.094-.246 0-.339-.093-.094-.245-.094-.339 0l-.17.169c-.093.094-.093.246 0 .34.094.093.246.093.34 0zM10.478 3.418l-.17-.169c-.094-.094-.246-.094-.339 0-.094.093-.094.245 0 .339l.169.17c.094.093.246.093.34 0 .093-.094.093-.246 0-.34zM6.476 10.756c0 0-.321-1.738-1.966-2.934-.107-.078-.257-.055-.335.052-.078.108-.054.258.053.336 1.479 1.076 1.776 2.634 1.776 2.634.025.13.15.216.28.192.13-.025.216-.15.192-.28zM2.851 7.011c-.605-.182-1.31-.291-2.131-.291-.132 0-.24.108-.24.24 0 .132.108.24.24.24.767 0 1.427.101 1.994.27.126.038.26-.034.298-.161.038-.127-.034-.26-.161-.298z"/></svg>