<svg xmlns="http://www.w3.org/2000/svg" width="128" height="128" enable-background="new 0 0 128 128" viewBox="0 0 128 128"><path fill="#e7b74a" d="M52.3 43.2c-.8-.9-1.9-1.4-3.1-1.4-1 0-1.9.3-2.6.9-.8.7-1.3 1.7-1.4 2.7-.1 1.1.2 2.1.9 2.9.8.9 1.9 1.4 3.1 1.4 1 0 1.8-.3 2.6-.9.8-.7 1.3-1.6 1.4-2.7C53.3 45.1 53 44.1 52.3 43.2zM41.2 45.3c-1 0-1.9.3-2.6.9-1.7 1.4-1.9 3.9-.5 5.6.8.9 1.9 1.4 3.1 1.4 1 0 1.8-.3 2.6-.9 1.7-1.4 1.9-3.9.5-5.6C43.5 45.8 42.4 45.3 41.2 45.3zM36.4 52.6c-.7 0-1.6.2-2.6.9-.8.7-1.3 1.6-1.4 2.7-.1 1.1.2 2.1.9 2.9.8.9 1.9 1.4 3.1 1.4 1 0 1.9-.3 2.6-.9.8-.7 1.3-1.6 1.4-2.7.1-1.1-.2-2.1-.9-2.9C38.7 53.1 37.5 52.6 36.4 52.6z"/><path fill="#f1a456" d="M74.5 32.9c-1.2 0-2.3.5-3.1 1.4-.7.8-1 1.9-.9 2.9.1 1.1.6 2 1.4 2.8.7.6 1.6.9 2.6.9 1.2 0 2.3-.5 3.1-1.4.7-.8 1-1.9.9-2.9-.1-1.1-.6-2.1-1.4-2.7C76.4 33.2 75.5 32.9 74.5 32.9zM86.6 40c-.1-1.1-.6-2-1.4-2.7-.7-.6-1.6-.9-2.6-.9-1.2 0-2.3.5-3.1 1.4-.7.8-1 1.9-.9 2.9.1 1.1.6 2 1.4 2.7.7.6 1.6.9 2.6.9 1.2 0 2.3-.5 3.1-1.4C86.4 42.1 86.7 41 86.6 40zM90 44.6c-.7-.6-1.6-.9-2.6-.9-1.2 0-2.3.5-3.1 1.4-1.4 1.7-1.2 4.2.5 5.6.7.6 1.6.9 2.6.9 1.2 0 2.3-.5 3.1-1.4.7-.8 1-1.8.9-2.9C91.3 46.2 90.8 45.3 90 44.6z"/><path fill="#6eaf97" d="M83.6 30.9c-.1-.2-.1-.3-.3-.5-2.9-4-8.3-6.5-14.1-6.5-2.4 0-4.7.4-6.8 1.2-.8.3-1.4 1.2-1.3 2.1s.8 1.6 1.7 1.8c6.5 1.1 12.4 2.8 18.6 5.6.3.1.5.2.8.2 0 0 0 0 0 0 1.1 0 2-.9 2-2 0-.4-.1-.7-.3-1L83.6 30.9zM92.3 37.9c-.1-.1-.3-.1-.4-.2-.4-.1-.9-.2-1.3-.3-.8-.2-1.6.2-2 .9-.4.7-.4 1.6 0 2.2 3.8 5.5 6.6 11.1 8.8 17.3.3.8 1 1.3 1.9 1.3 0 0 .1 0 .1 0 .9-.1 1.6-.7 1.8-1.6.8-4.2.1-8.9-2-12.9C97.4 41.6 95.1 39.3 92.3 37.9z"/><path fill="#6eaf97" d="M111.2 40.4c-3.5-4.9-9.6-8.2-15.4-8.2-.4 0-.8 0-1.2 0-.2 0-.4.1-.6.2 3.4-2.6 6.9-6.7 8.4-12.8.2-.7-.1-1.5-.7-2-.6-.5-1.4-.6-2.1-.3-5.8 2.5-9.1 6.7-11.1 10.5.1-.2.1-.4.1-.7-.2-1.8-.7-3.5-1.4-5.2-2-4.4-5.6-7.9-9.8-9.8-.8-.4-1.8-.1-2.4.6-.6.7-.6 1.7-.1 2.4 3.5 4.8 6.3 9.9 8.5 15.4.1.1.1.2.2.4l.1.1c.4.6 1 1 1.7 1 0 0 .1 0 .1 0 .6 0 1.2-.4 1.5-.9-.3.7-.5 1.4-.6 2-.2.8 0 1.6.6 2.1.4.3.8.5 1.3.5.3 0 .6-.1.9-.2.6-.3 1.2-.6 1.9-1-.5.4-.7 1-.7 1.7.1.8.6 1.4 1.3 1.7l.2.1c.1.1.3.1.4.1 5.8 1.2 11.2 3.1 16.5 5.7.3.1.6.2.9.2 0 0 0 0 0 0h0c1.1 0 2-.9 2-2C111.7 41.2 111.5 40.7 111.2 40.4zM33.3 46.4L32 46.7c-.2 0-.3.1-.5.2-2.8 1.4-5.2 3.7-6.8 6.8-2.1 4-2.9 8.7-2 12.9.2.9.9 1.5 1.8 1.6 0 0 .1 0 .1 0 .8 0 1.6-.5 1.9-1.3 2.2-6.3 5-11.8 8.8-17.3.5-.7.5-1.5 0-2.2C34.9 46.6 34.1 46.3 33.3 46.4z"/><path fill="#6eaf97" d="M40.1 39.9l.1-.1c.1-.1.1-.2.2-.3 2.2-5.5 5-10.6 8.5-15.4.5-.7.5-1.7-.1-2.4-.6-.7-1.5-.9-2.4-.6-4.2 1.9-7.8 5.4-9.8 9.8-.8 1.7-1.3 3.5-1.4 5.3 0 .2 0 .4 0 .6-2-3.8-5.4-8-11.1-10.5-.7-.3-1.5-.2-2.1.3-.6.5-.8 1.3-.7 2 1.5 6.1 5 10.2 8.4 12.8-.2-.1-.4-.2-.6-.2-.4 0-.8 0-1.2 0-5.9 0-12.1 3.4-15.6 8.4-.5.7-.5 1.7.1 2.4.4.5.9.7 1.5.7.3 0 .6-.1.9-.2 5.3-2.6 10.7-4.4 16.5-5.6.1 0 .3-.1.4-.1l.3-.1c.7-.3 1.1-1 1.2-1.7 0-.6-.2-1.2-.6-1.6.6.4 1.2.7 1.8 1 .3.1.6.2.9.2 0 0 0 0 0 0 1.1 0 2-.9 2-2 0-.3-.1-.6-.2-.8-.2-.5-.3-1.1-.6-1.7.3.5.9.8 1.5.9.1 0 .1 0 .2 0C39.1 40.8 39.7 40.4 40.1 39.9zM61.4 34.1c-2.1-.8-4.4-1.2-6.8-1.2-5.8 0-11.3 2.5-14.1 6.5-.1.1-.2.3-.2.4-.2.4-.3.8-.5 1.2-.3.8-.1 1.6.5 2.2.4.4.9.5 1.4.5.3 0 .6-.1.8-.2 6.1-2.8 12-4.6 18.6-5.6.9-.1 1.6-.9 1.7-1.8S62.3 34.4 61.4 34.1z"/><path fill="#e0baa0" d="M75.1,80.2l-2.7-0.3l0.5,2.6c0.4,2.1,0.8,3.7,1.1,4.7l0.4,1.3c-6.6-0.6-13.1-0.6-19.7,0.1l0.1,0l0-1.8
		c0-1.7-0.1-3.5-0.3-5.2l-0.2-1.9l-1.9,0.2C37.8,81,22.2,85.3,22.2,92c0,0.3,0,0.6,0.1,0.8l0.2,0.5l0.3,0.3c0.8,0.7,1.9,1,4.6,1
		c1.2,0,2.4,0,3.7-0.1c1.5-0.1,3.3-0.1,5.1-0.1c6.6,0,15.1,0.8,22.7,6.9c6,4.9,12.3,7.3,18.8,7.3c3.9,0,7.8-0.9,11.6-2.7
		c8-3.8,13-10.7,13-14C102.2,85.8,88.6,81.6,75.1,80.2z"/><path fill="#f5cfb5" d="M96.8,90.5c0,2.2-4.2,8.5-11.9,12.2c-6.5,3.1-16.7,4.9-28.2-4.4c-9.9-8-22.4-4.6-30-4.3
		c-2.6,0.1-5.3-2.7-5.9-3.3c0,0,0-0.1,0-0.2c0-3.9,10.8-8.7,28.3-10.1c5.1-0.2,16.8-1.5,22.4,0.3C87.2,82.3,96.8,86.9,96.8,90.5z"/><path fill="#32393d" d="M120 90h-9.8c-1.1 0-2 .9-2 2s.9 2 2 2h9.8c1.1 0 2-.9 2-2S121.1 90 120 90zM16.2 92c0-1.1-.9-2-2-2H8c-1.1 0-2 .9-2 2s.9 2 2 2h6.2C15.3 94 16.2 93.1 16.2 92zM112 102h-7.3c-1.1 0-2 .9-2 2s.9 2 2 2h7.3c1.1 0 2-.9 2-2S113.1 102 112 102zM52.6 104c0-1.1-.9-2-2-2H16c-1.1 0-2 .9-2 2s.9 2 2 2h34.6C51.7 106 52.6 105.1 52.6 104zM84.9 114H39.5c-1.1 0-2 .9-2 2s.9 2 2 2h45.4c1.1 0 2-.9 2-2S86 114 84.9 114z"/><path fill="#32393d" d="M115.6,45.7c-1.4-7.5-8.8-13.9-16.8-15.3c3-3.4,5.5-8,6.1-14.2c0.1-0.6-0.2-1.3-0.7-1.7
		c-0.5-0.4-1.2-0.6-1.8-0.4c-6,1.7-10.1,5-12.9,8.5c-0.2-0.5-0.4-1-0.6-1.6C85.7,13.9,78.6,8.9,71.6,8.8h0c-0.8,0-1.5,0.4-1.8,1.1
		c-0.3,0.7-0.2,1.5,0.3,2.1c3.2,3.9,5.8,7.7,8,11.8c-2.8-1.3-5.9-1.9-8.9-1.9c-5.2,0-10,1.8-13.2,4.9c-0.6,0.6-0.8,1.4-0.5,2.1
		c0.3,0.7,0.9,1.3,1.7,1.3c4.6,0.5,8.9,1.2,13.1,2.4C70.2,32.8,70,32.9,70,33c-1,1.2-1.5,2.8-1.4,4.4c0.1,1.6,0.9,3,2.1,4.1
		c0.7,0.6,1.6,1,2.5,1.2c-7.7,10-10.9,19-12.1,25.5c-2.4-4.9-5.7-10.5-10.5-16.6c0.9-0.2,1.8-0.6,2.5-1.2c1.2-1,2-2.5,2.1-4.1
		c0.1-1.6-0.4-3.1-1.4-4.4c-0.1-0.1-0.2-0.2-0.3-0.3c4.2-1.2,8.5-2,13.1-2.4c0.8-0.1,1.4-0.6,1.7-1.3c0.3-0.7,0.1-1.6-0.5-2.1
		c-3.2-3.1-8.1-4.9-13.2-4.9c-3,0-6.1,0.6-8.9,1.9c2.2-4.1,4.9-7.9,8-11.8c0.5-0.6,0.6-1.4,0.3-2.1c-0.3-0.7-1.1-1.1-1.8-1.1
		c-7,0.1-14.1,5.1-17.3,12.3c-0.2,0.5-0.4,1-0.6,1.6c-2.8-3.5-6.9-6.8-12.9-8.5c-0.6-0.2-1.3,0-1.8,0.4c-0.5,0.4-0.8,1.1-0.7,1.7
		c0.6,6.2,3.1,10.8,6.1,14.2c-8,1.4-15.3,7.8-16.7,15.3c-0.1,0.8,0.2,1.5,0.8,2c0.4,0.3,0.8,0.4,1.2,0.4c0.3,0,0.7-0.1,1-0.3
		c4.3-2.5,8.6-4.4,12.9-5.8c-0.4,0.6-0.8,1.2-1.1,1.9c-3.5,6.7-3.4,14.9,0.3,20.4c0.4,0.5,1,0.9,1.7,0.9c0.1,0,0.2,0,0.3,0
		c0.8-0.1,1.4-0.7,1.6-1.4c1.2-4.5,2.8-8.6,4.6-12.5c0.1,0.1,0.2,0.3,0.3,0.4c1.1,1.4,2.8,2.2,4.6,2.2c1.4,0,2.8-0.5,3.9-1.4
		c1.1-1,1.9-2.3,2.1-3.8c5.7,6.7,8.4,14.1,9.6,20.5C35.8,79.3,20.2,84,20.2,92c0,1.5,0.7,2.5,1.2,3c1.8,1.8,5.2,1.7,9.8,1.5
		c7.5-0.3,17.7-0.7,26.4,6.4c7.3,5.9,14.2,7.7,20,7.7c5.2,0,9.5-1.5,12.4-2.9c8.4-4,14.1-11.4,14.1-15.8c0-8.2-15.7-12.5-30-13.9
		c-0.9-8.2-0.4-20,7.3-29.5c0.2,1.4,0.9,2.7,2.1,3.7c1.1,0.9,2.4,1.4,3.9,1.4c1.8,0,3.5-0.8,4.6-2.1c0.1-0.1,0.2-0.2,0.3-0.4
		c1.9,3.9,3.4,8,4.7,12.5c0.2,0.8,0.8,1.3,1.6,1.4c0.1,0,0.2,0,0.3,0c0.6,0,1.3-0.3,1.6-0.9c3.8-5.5,3.9-13.7,0.3-20.4
		c-0.3-0.6-0.7-1.3-1.1-1.9c4.4,1.5,8.6,3.4,12.9,5.8c0.3,0.2,0.6,0.3,1,0.3c0.4,0,0.8-0.1,1.2-0.4
		C115.5,47.2,115.8,46.4,115.6,45.7z M100.5,19.1c-2.1,8.3-8.3,12.6-12.1,14.4C89.5,29.4,92.6,22.5,100.5,19.1z M63.1,27
		c1.9-0.7,3.9-1.1,6.1-1.1c4.8,0,9.8,1.9,12.5,5.7c0.1,0.4,0.3,0.8,0.5,1.2C75.9,30,69.8,28.1,63.1,27z M72.6,37.1
		c-0.1-0.5,0.1-1,0.5-1.5c0.4-0.5,0.9-0.7,1.5-0.7c0.3,0,0.8,0.1,1.3,0.5c0.4,0.3,0.7,0.8,0.7,1.4c0,0.5-0.1,1-0.5,1.5
		c-0.4,0.5-0.9,0.7-1.5,0.7c-0.3,0-0.8-0.1-1.3-0.5C72.9,38.1,72.6,37.6,72.6,37.1z M50.5,47.3c-0.5,0.4-1,0.5-1.3,0.5
		c-0.6,0-1.2-0.3-1.5-0.7c-0.4-0.4-0.5-0.9-0.5-1.5c0-0.5,0.3-1,0.7-1.4c0.5-0.4,0.9-0.5,1.3-0.5c0.6,0,1.1,0.3,1.5,0.7
		c0.3,0.4,0.5,0.9,0.5,1.5C51.2,46.5,50.9,47,50.5,47.3z M54.6,34.8c2.2,0,4.3,0.4,6.1,1.1c-6.7,1.1-12.9,3-19.1,5.8
		c0.1-0.4,0.3-0.8,0.5-1.2C44.8,36.8,49.8,34.8,54.6,34.8z M23.3,28c7.8,3.5,10.9,10.3,12.1,14.5C31.6,40.5,25.4,36.3,23.3,28z
		 M14.1,50.6c3-4.4,8.5-7.6,13.9-7.6c0.3,0,0.6,0,1,0c0.8,0.6,1.6,1.1,2.4,1.6c-0.1,0-0.2,0.1-0.3,0.1C25.2,46,19.6,47.9,14.1,50.6z
		 M24.7,66.2c-0.7-3.7-0.1-7.9,1.8-11.6c1.5-2.8,3.5-4.8,5.9-6c0.4-0.1,0.9-0.2,1.3-0.3C29.8,54,26.9,59.8,24.7,66.2z M37.7,58.1
		c-0.5,0.4-0.9,0.5-1.3,0.5c-0.6,0-1.1-0.3-1.5-0.7c-0.3-0.4-0.5-0.9-0.5-1.5c0-0.5,0.3-1,0.7-1.4c0.5-0.4,0.9-0.5,1.3-0.5
		c0.6,0,1.1,0.3,1.5,0.7c0.3,0.4,0.5,0.9,0.5,1.5C38.3,57.3,38.1,57.8,37.7,58.1z M38.4,38.8c-0.3-0.8-0.7-1.7-1.2-2.6
		c0.1-1.5,0.6-3.1,1.3-4.6c1.8-4,5.1-7.2,8.8-8.8c-3.6,5-6.4,10.2-8.7,15.8C38.5,38.7,38.4,38.8,38.4,38.8z M42.5,50.8
		c-0.5,0.4-1,0.5-1.3,0.5c-0.6,0-1.1-0.3-1.5-0.7c-0.7-0.8-0.6-2.1,0.2-2.8c0.5-0.4,1-0.5,1.3-0.5c0.6,0,1.1,0.3,1.5,0.7
		C43.4,48.8,43.3,50.1,42.5,50.8z M44.7,54.1c0.1-0.1,0.2-0.2,0.3-0.2c0.5-0.4,0.9-0.8,1.2-1.3c13.2,16.1,15.8,29,16.2,33.6
		c-1.9,0.1-3.8,0.2-5.7,0.3C56.6,78.3,54.6,65.2,44.7,54.1z M80.3,91.3c0.1,0,0.2,0,0.3,0c1,0,1.8-0.7,2-1.7
		c0.2-1.1-0.6-2.1-1.7-2.3c-1.7-0.3-3.3-0.5-5-0.7c-0.3-1-0.7-2.6-1.1-4.6c15.8,1.7,25.4,6.3,25.4,9.8c0,2.2-4.2,8.5-11.9,12.2
		c-6.5,3.1-16.7,4.9-28.2-4.4c-9.9-8-21.5-7.6-29.1-7.3c-2.6,0.1-6.2,0.3-6.8-0.3c0,0,0-0.1,0-0.2c0-3.9,10.8-8.7,28.3-10.1
		c0.2,1.8,0.3,3.5,0.3,5c-1.1,0.1-2.2,0.3-3.4,0.5c-1.1,0.2-1.8,1.2-1.7,2.3c0.2,1.1,1.2,1.8,2.3,1.7C60.1,89.7,70.2,89.7,80.3,91.3
		z M71.6,86.3c-1.7-0.1-3.4-0.2-5.2-0.2c-0.2-2-0.7-5.4-2.1-9.9c-0.1-5.1,1.2-17.5,13.3-32.6c0.3,0.5,0.7,0.9,1.2,1.3
		c0.1,0.1,0.2,0.2,0.4,0.3C66.4,59.8,69.8,79.1,71.6,86.3z M84.1,41.6c-0.4,0.5-0.9,0.7-1.5,0.7c-0.3,0-0.8-0.1-1.3-0.5
		c-0.8-0.7-1-2-0.2-2.8c0.4-0.5,0.9-0.7,1.5-0.7c0.3,0,0.8,0.1,1.3,0.5c0.4,0.3,0.7,0.8,0.7,1.4C84.6,40.7,84.5,41.2,84.1,41.6z
		 M85.3,29.7C83,24,80.1,18.9,76.5,13.9c3.7,1.6,6.9,4.8,8.8,8.8c0.7,1.5,1.1,3.1,1.3,4.6c-0.5,0.9-0.9,1.8-1.2,2.6
		C85.4,29.8,85.3,29.8,85.3,29.7z M88.9,49c-0.4,0.5-0.9,0.7-1.5,0.7c-0.3,0-0.8-0.1-1.3-0.5c-0.9-0.7-1-2-0.3-2.8
		c0.4-0.5,0.9-0.7,1.5-0.7c0.3,0,0.8,0.1,1.3,0.5c0.4,0.3,0.7,0.8,0.7,1.4C89.4,48,89.3,48.5,88.9,49z M99.1,57.3
		c-2.2-6.4-5.1-12.2-9-17.8c0.4,0.1,0.9,0.2,1.3,0.3c2.4,1.1,4.4,3.2,5.9,6C99.3,49.4,99.9,53.6,99.1,57.3z M92.7,35.9
		c-0.1,0-0.2-0.1-0.3-0.1c0.8-0.5,1.6-1,2.4-1.6c0.3,0,0.7,0,1,0c5.4,0,10.9,3.2,13.9,7.6C104.1,39,98.6,37.1,92.7,35.9z"/><path fill="#919191" d="M71.6,86.3c-1.7-0.1-3.4-0.2-5.2-0.2c-0.2-2-0.7-5.4-2.1-9.9c-0.1-5.1,1.2-17.5,13.3-32.6
		c0.3,0.5,0.7,0.9,1.2,1.3c0.1,0.1,0.2,0.2,0.4,0.3C66.4,59.8,69.8,79.1,71.6,86.3z"/><path fill="#a5a3a4" d="M67.5,86.2c-0.3,0-0.7,0-1,0c-0.2-2-0.7-5.4-2.1-9.9c-0.1-5.1,1.2-17.5,13.3-32.6c0.2,0.4,0.5,0.7,0.8,1
		C67.9,54.9,66,73.9,67.5,86.2z"/><path fill="#919191" d="M62.5,86.2c-1.9,0.1-3.8,0.2-5.7,0.3c-0.1-8.2-2.1-21.3-12-32.4c0.1-0.1,0.2-0.2,0.3-0.2
		c0.5-0.4,0.9-0.8,1.2-1.3C59.4,68.6,62,81.5,62.5,86.2z"/><path fill="#a5a3a4" d="M59.9,86.3c-1.1,0.1-2.1,0.1-3.2,0.2c-0.1-8.2-2.1-21.3-12-32.4c0.1-0.1,0.2-0.2,0.3-0.2
		c0.5-0.4,0.9-0.8,1.2-1.3C57.5,68.2,59.4,82.8,59.9,86.3z"/></svg>