<svg xmlns="http://www.w3.org/2000/svg" width="64" height="64" enable-background="new 0 0 64 64" viewBox="0 0 64 64"><path d="M60.909 29.582C60.745 29.228 60.391 29 60 29H40.727c-1.647-1.716-3.479-3.311-5.562-4.478C34.249 24.009 29 21.601 29 24v5H19v-1c0-2.757-2.243-5-5-5H8c-2.757 0-5 2.243-5 5v2c0 2.743 2.222 4.974 4.959 4.996.583 2.508 1.272 5.104 2.57 7.35C11.266 43.62 12.392 45 14 45h20c6.89 0 13.399-3.156 18.842-7.167 2.042-1.505 3.976-3.159 5.784-4.937C59.25 32.283 61.401 30.653 60.909 29.582 60.745 29.228 61.072 29.937 60.909 29.582zM31 25.083c2.5.404 5.001 2.218 6.866 3.917H31V25.083zM5 30v-2c0-1.654 1.346-3 3-3h6c1.654 0 3 1.346 3 3v1H8c-1.721 0-.668 3.071-.491 3.96C6.087 32.725 5 31.487 5 30zM34 43H14c-.669 0-1.72-1.079-2.802-4H36c1.29 0 1.29-2 0-2H10.552c-.583-1.969-1.023-3.978-1.375-6H18h12 10.3.02 17.356C54.038 34.634 44.518 43 34 43zM56 46.58c-1.121 0-2.109.464-2.893 1.25-.743.745-1.268 1.865-2.213 2.375-2.127 1.149-3.344-2.064-4.77-3.003-2.139-1.409-4.382-.277-5.788 1.508-.618.784-1.243 1.709-2.348 1.709-1.183 0-1.824-1.062-2.485-1.885-1.439-1.791-3.82-2.707-5.85-1.188-1.332.997-2.664 4.198-4.748 2.741-.826-.577-1.315-1.55-2.02-2.257-.866-.869-1.978-1.33-3.213-1.239-1.088.079-2.004.624-2.734 1.412-.694.748-1.249 1.91-2.244 2.295-2.148.831-3.234-2.349-4.778-3.229-.76-.433-2.544-.98-2.881.245-.388 1.41 1.544 1.15 2.235 1.74.773.659 1.263 1.593 2.011 2.283.913.842 2.107 1.222 3.342 1.037 1.053-.157 1.901-.768 2.587-1.554.66-.756 1.25-1.931 2.3-2.186 2.146-.521 3.112 2.606 4.793 3.417 2.405 1.159 4.263-.421 5.677-2.192.636-.797 1.39-1.492 2.492-1.225 1.05.255 1.64 1.43 2.3 2.186 1.552 1.779 4.115 2.19 5.931.517 1.133-1.044 2.25-3.588 4.184-2.543.811.438 1.298 1.352 1.889 2.027.618.707 1.37 1.287 2.302 1.5 2.228.508 3.64-.875 4.908-2.461.274-.342.56-.694.923-.947.445-.311.866-.233 1.355-.368C57.357 48.244 57.133 46.58 56 46.58z"/><path d="M56,50.58c-1.121,0-2.109,0.464-2.893,1.25c-0.743,0.745-1.268,1.865-2.213,2.375c-2.127,1.149-3.344-2.064-4.77-3.003
			c-2.139-1.409-4.382-0.277-5.788,1.508c-0.618,0.784-1.243,1.709-2.348,1.709c-1.183,0-1.824-1.062-2.485-1.885
			c-1.439-1.791-3.82-2.707-5.85-1.188c-1.332,0.997-2.664,4.198-4.748,2.741c-0.826-0.577-1.315-1.55-2.02-2.257
			c-0.866-0.869-1.978-1.33-3.213-1.239c-1.088,0.079-2.004,0.624-2.734,1.412c-0.694,0.748-1.249,1.91-2.244,2.295
			c-2.148,0.831-3.234-2.349-4.778-3.229c-0.76-0.433-2.544-0.98-2.881,0.245c-0.388,1.41,1.544,1.15,2.235,1.74
			c0.773,0.659,1.263,1.593,2.011,2.283c0.913,0.842,2.107,1.222,3.342,1.037c1.053-0.157,1.901-0.768,2.587-1.554
			c0.66-0.756,1.25-1.931,2.3-2.186c2.146-0.521,3.112,2.606,4.793,3.417c2.405,1.159,4.263-0.421,5.677-2.192
			c0.636-0.797,1.39-1.492,2.492-1.225c1.05,0.255,1.64,1.43,2.3,2.186c1.552,1.779,4.115,2.19,5.931,0.517
			c1.133-1.044,2.25-3.588,4.184-2.543c0.811,0.438,1.298,1.352,1.889,2.027c0.618,0.707,1.37,1.287,2.302,1.5
			c2.228,0.508,3.64-0.875,4.908-2.461c0.274-0.342,0.56-0.694,0.923-0.947c0.445-0.311,0.866-0.233,1.355-0.368
			C57.357,52.244,57.133,50.58,56,50.58z"/></svg>